<svg width="1004" height="981" viewBox="0 0 1004 981" fill="none" xmlns="http://www.w3.org/2000/svg">
<path d="M947.405 274.597C949.895 279.977 952.232 285.432 954.916 290.718C957.884 296.566 961.204 302.243 964.267 308.046C964.597 308.67 964.241 309.641 964.424 311.182C965.83 314.367 967.016 316.821 968.201 319.274C968.285 319.642 968.37 320.009 968.547 321.057C970.216 326.259 971.693 330.815 973.4 335.289C974.724 338.755 976.336 342.117 977.82 345.526C979.105 350.115 980.391 354.704 981.735 360.09C981.962 361.649 982.13 362.411 982.29 363.409C982.282 363.646 982.463 364.09 982.455 364.484C983.512 367.563 984.577 370.247 985.596 373.318C985.736 374.461 985.92 375.218 986.106 376.385C986.37 377.852 986.634 378.908 986.856 380.285C987.437 381.388 988.059 382.171 988.682 382.954C988.878 383.634 989.075 384.314 989.367 385.739C990.333 391.224 991.204 395.965 992.013 401.011C992.862 403.618 993.774 405.919 994.638 408.648C995.372 414.394 996.234 419.702 996.919 425.029C998.976 441.016 1000.96 457.01 1002.78 473.291C1002.5 476.003 1002.42 478.425 1002.26 481.293C1002.64 486.463 1003.09 491.187 1003.4 496.272C1003.31 502.149 1003.36 507.663 1003.41 513.178C1003.41 513.178 1003.33 513.598 1003.13 514.02C1002.66 515.43 1002.39 516.419 1002.06 517.672C1002.08 518.105 1002.15 518.274 1002.19 518.677C1002.16 518.912 1002.29 519.372 1002.24 519.758C1002.35 520.908 1002.51 521.671 1002.67 522.434C1002.53 527.152 1002.39 531.87 1002.06 537.296C1001.3 542.684 1000.6 547.351 1000.19 552.051C999.864 555.778 999.886 559.545 999.754 563.295C999.699 563.663 999.645 564.031 999.306 564.867C998.745 568.108 998.47 570.88 998.195 573.653C997.376 578.254 996.643 582.875 995.72 587.453C994.075 595.605 992.315 603.731 990.31 612.414C989.342 615.43 988.668 617.899 987.993 620.369C986.305 626.764 984.68 633.179 982.898 639.546C982.128 642.294 981.031 644.942 979.899 648.261C977.418 655.761 975.12 662.635 972.822 669.51C966.59 683.865 960.895 698.497 953.964 712.494C947.764 725.014 940.701 737.165 933.111 748.878C923.544 763.643 913.058 777.801 902.953 792.209C902.317 793.117 901.547 793.93 900.552 795.351C899.413 796.86 898.565 797.809 897.708 798.751C886.383 811.206 875.511 824.114 863.61 835.995C850.482 849.1 836.965 861.935 822.587 873.641C809.367 884.405 795.021 893.873 780.719 903.241C768.394 911.313 755.626 918.781 742.679 925.856C734.807 930.157 726.192 933.134 717.981 936.854C715.117 938.152 712.464 939.894 709.324 941.482C707.905 941.734 706.876 941.936 705.471 942.103C700.051 944.634 695.572 948.572 689.278 948.151C688.966 948.13 688.611 949.171 688.276 949.718C687.288 949.867 686.3 950.017 684.598 950.186C683.435 950.323 682.986 950.44 682.303 950.552C682.069 950.546 681.674 950.787 681.302 950.88C676.086 952.83 671.27 954.76 666.39 956.525C660.393 958.694 654.343 960.726 648.316 962.817C647.942 962.851 647.568 962.884 646.622 962.964C643.927 963.357 641.805 963.703 639.683 964.049C639.683 964.049 639.211 964.079 638.67 964.17C637.282 964.9 636.435 965.539 635.588 966.178C635.213 966.217 634.837 966.257 633.868 966.337C628.788 967.512 624.302 968.647 619.817 969.782C618.213 969.984 616.609 970.187 614.164 970.475C610.608 970.912 607.893 971.263 605.178 971.614C588.325 973.94 571.521 976.622 554.602 978.457C544.516 979.552 534.249 979.319 523.2 979.749C519.616 980.131 516.896 980.448 514.176 980.764C512.868 980.792 511.56 980.819 509.571 980.646C503.909 980.529 498.928 980.612 493.948 980.696C493.587 980.63 493.227 980.564 492.309 980.27C487.714 980.018 483.674 979.993 479.635 979.969C479.285 979.914 478.935 979.859 478.074 979.583C474.242 979.272 470.92 979.183 467.598 979.093C467.598 979.093 467.584 979.053 467.36 978.779C461.448 977.772 455.761 977.04 449.736 976.239C447.418 975.738 445.439 975.305 443.234 974.8C443.008 974.73 442.553 974.839 442.202 974.775C441.4 974.817 440.947 974.921 440.494 975.025C436.491 974.587 432.474 974.262 428.488 973.68C423.886 973.008 419.311 972.109 414.093 971.08C407.054 969.62 400.646 968.39 394.238 967.16C394.238 967.16 393.971 967.375 393.921 966.947C385.567 964.288 377.264 962.058 368.961 959.828C367.81 959.58 366.659 959.332 364.945 958.795C359.238 956.79 354.045 955.215 348.96 953.33C337.989 949.263 327.055 945.087 316.141 940.858C308.944 938.07 301.569 935.606 294.697 932.129C281.044 925.22 267.557 917.941 254.244 910.375C244.493 904.833 234.914 898.909 225.649 892.575C213.786 884.465 202.315 875.771 190.674 867.329C182.405 860.353 173.767 853.764 165.954 846.311C154.308 835.203 143.001 823.711 132.008 811.957C123.061 802.39 114.609 792.342 106.273 782.234C100.233 774.909 94.742 767.137 88.8137 758.882C83.2729 749.845 77.9245 741.49 72.576 733.136C68.9766 727.027 65.3772 720.919 61.4938 714.108C59.7649 711.307 58.3199 709.207 56.875 707.108C52.462 697.66 47.8422 688.294 43.7709 678.708C42.6514 676.072 37.6632 675.52 39.4869 670.651C38.1744 667.538 37.1646 665.128 36.0889 662.393C35.8702 661.652 35.7173 661.236 35.6098 660.42C34.7843 658.238 33.9134 656.457 32.9766 654.274C32.5879 652.267 32.2651 650.664 31.9371 648.661C30.9532 645.719 30.0582 643.142 28.9647 640.646C28.2853 639.096 27.3052 637.67 26.4601 636.188C25.1326 631.27 23.8051 626.353 22.4157 620.663C22.2287 619.438 22.1038 618.987 21.9858 618.298C21.9928 618.061 21.8148 617.616 21.8498 617.344C21.7995 616.906 21.7143 616.741 21.5668 616.204C20.5543 613.475 19.6041 611.119 18.691 608.378C18.5316 607.244 18.335 606.494 18.1655 605.332C17.9268 603.854 17.6611 602.788 17.4231 601.408C16.8345 600.36 16.2182 599.625 15.6019 598.89C15.4075 598.173 15.213 597.455 14.9074 595.979C13.9221 590.48 13.0478 585.739 12.237 580.709C11.4402 578.577 10.5801 576.733 9.72001 574.89C9.72001 574.89 9.68188 574.943 9.78398 574.479C7.63833 557.412 5.38047 540.809 3.14842 524.203C2.39321 518.585 1.70328 512.959 0.983521 507.337C0.983521 507.337 1.00967 507.275 1.316 507.075C1.61465 497.722 1.60697 488.568 1.59929 479.415C1.64562 479.033 1.69194 478.652 1.76395 477.545C1.91992 472.646 2.05023 468.473 2.22372 464.034C2.19666 463.6 2.1264 463.432 2.08586 463.029C2.11558 462.794 1.98392 462.334 2.03418 461.949C1.92982 460.801 1.77519 460.038 1.62056 459.276C1.75047 454.553 1.88038 449.83 2.1861 444.385C2.57881 440.746 2.72076 437.819 3.02654 434.914C3.96959 425.954 4.97518 417.002 5.95647 408.046C6.19444 406.305 6.31477 404.535 6.69344 402.829C7.65181 398.511 8.94539 394.265 9.69938 389.909C10.671 384.296 11.1829 378.593 12.0505 372.958C12.219 371.863 13.1107 370.899 13.9639 369.316C14.9294 366.282 15.6 363.806 16.2705 361.329C18.2557 354.654 20.241 347.978 22.3966 340.626C25.5269 330.698 28.4869 321.447 31.4468 312.195C37.6608 297.871 43.3209 283.261 50.2539 269.308C56.4466 256.844 64.2814 245.238 70.9659 233.013C80.6124 215.371 93.0518 199.769 105.679 183.575C111.707 176.413 116.897 169.233 123.06 163.017C136.097 149.869 149.127 136.635 163.118 124.532C178.257 111.437 194.002 98.9126 210.392 87.4063C224.159 77.7413 239.063 69.6061 253.784 61.3437C264.371 55.4014 275.5 50.3943 286.352 44.9036C289.207 43.4595 291.931 41.7686 294.715 40.1911C298.94 38.7734 303.188 37.4165 307.382 35.9202C311.246 34.542 315.053 33.014 319.638 31.5237C320.84 31.3789 321.289 31.2624 321.972 31.1516C322.205 31.1573 322.6 30.9183 322.972 30.8279C328.525 28.7906 333.686 26.7894 338.894 24.9113C344.579 22.8609 350.308 20.9244 356.018 18.9383C356.018 18.9383 356.393 18.9418 356.98 18.8651C360.227 18.3534 362.887 17.9183 365.874 17.4588C367.058 16.8211 367.916 16.2079 368.774 15.5946C369.131 15.5419 369.488 15.4892 370.424 15.3945C375.803 14.1648 380.602 12.9771 385.401 11.7894C386.7 11.6339 387.999 11.4783 390.142 11.2418C397.369 9.85893 403.752 8.55696 410.134 7.255C429.645 5.31368 449.155 3.37236 469.409 1.57828C477.463 1.4117 484.773 1.09786 492.084 0.784027C493.071 0.788079 494.059 0.792137 495.606 0.949046C496.878 1.32905 497.591 1.5562 498.739 1.92934C502.898 1.7148 506.622 1.35426 510.346 0.993723C510.721 1.04304 511.097 1.09236 511.943 1.35573C513.469 1.80069 514.524 2.03161 516.023 2.37266C519.165 2.21208 521.862 1.94136 524.559 1.67066C524.559 1.67066 524.906 1.84383 525.36 2.06539C527.453 2.58454 529.085 2.96815 530.734 3.16568C541.085 4.40577 551.441 5.60442 562.031 6.84965C562.267 6.88253 562.726 6.77492 563.074 6.84315C563.872 6.80559 564.323 6.69981 564.773 6.59403C565.468 6.60003 566.162 6.60604 567.439 6.88328C571.458 7.81508 574.895 8.47567 578.332 9.13625C582.066 9.55475 585.8 9.97324 590.169 10.629C592.732 11.2307 594.692 11.462 596.58 11.9804C613.249 16.5559 629.925 21.102 646.558 25.8136C668.799 32.1135 690.193 40.796 711.032 50.8984C721.688 56.0641 732.303 61.3834 742.592 67.2548C755.442 74.5879 768.147 82.2353 780.523 90.3569C791.093 97.2933 801.109 105.091 811.37 112.508C811.75 112.885 812.13 113.262 812.896 114.019C815.899 116.311 818.516 118.223 821.133 120.134C829.891 127.866 838.871 135.365 847.346 143.396C855.467 151.092 863.227 159.19 870.843 167.39C877.489 174.544 883.91 181.928 890.073 189.497C897.045 198.059 904.035 206.662 910.271 215.746C919.938 229.827 929.012 244.306 938.239 258.678C939.901 261.267 941.089 264.152 942.756 267.612C944.479 270.415 945.942 272.506 947.405 274.597ZM900.004 713.895C900.352 712.682 900.7 711.469 901.185 709.78C901.185 709.78 901.175 709.282 901.828 709.028C902.591 706.397 904.097 703.738 903.927 701.143C903.713 697.888 903.05 693.506 900.876 691.783C898.57 689.957 894.132 690.192 891.035 693.886C890.014 694.369 888.994 694.853 887.502 695.905C885.786 696.991 883.966 697.945 882.37 699.183C867.912 710.395 856.434 724.332 845.294 739.356C844.988 740.102 844.752 740.888 844.365 741.587C839.279 750.78 834.172 759.96 828.443 769.337C826.421 773.96 824.398 778.583 822.291 783.94C822.373 784.679 822.454 785.417 822.022 786.682C821.923 791.137 821.824 795.592 821.689 801.665C827.2 799.955 831.374 799.376 834.783 797.474C846.976 790.671 856.617 780.925 865.41 770.216C878.223 754.611 890.144 738.458 898.177 718.973C898.263 718.546 898.349 718.119 898.722 717.825C898.722 717.825 898.921 717.589 899.614 717.35C899.602 716.386 899.589 715.423 900.004 713.895ZM47.2127 450.6C47.3034 451.264 47.3942 451.929 47.3952 453.362C47.5347 454.123 47.6742 454.884 47.7034 456.388C47.4344 458.865 47.1653 461.342 46.809 464.617C47.1076 467.042 47.4062 469.467 47.525 472.651C47.6771 474.191 47.8292 475.732 47.4712 477.858C47.5841 480.283 47.697 482.707 47.716 485.974C48.005 487.644 48.294 489.314 48.419 491.873C49.3559 495.068 50.2927 498.262 51.1997 501.977C51.3337 502.296 51.4676 502.615 51.3921 503.639C52.0819 507.068 52.7717 510.496 53.7097 514.656C54.4372 516.482 55.0621 518.356 55.9138 520.125C57.6214 523.672 59.4531 527.163 61.3482 531.46C64.3282 539.614 70.1178 545.798 77.5047 549.52C80.6878 551.124 87.3249 550.434 89.6788 548.08C99.3958 538.363 103.778 525.77 105.352 511.574C105.602 510.556 105.852 509.538 106.166 507.694C105.985 506.042 105.804 504.39 106.104 502.302C106.396 501.307 106.687 500.311 106.995 498.396C106.819 491.98 106.644 485.564 106.54 478.207C105.831 473.167 105.122 468.127 104.402 462.223C102.913 456.258 101.423 450.293 99.9754 443.637C99.3404 443.089 98.7054 442.542 97.8723 441.177C96.5928 437.352 95.3134 433.527 94.0251 428.944C93.1585 427.759 92.3645 426.512 91.4126 425.399C87.3151 420.606 83.3972 415.629 78.9584 411.171C76.3575 408.559 65.8517 408.496 63.5298 411.237C59.8422 415.589 56.9781 420.643 53.1325 425.566C51.3189 433.781 49.5054 441.997 47.7372 450.302C47.7372 450.302 47.8261 450.349 47.2127 450.6ZM375.063 639.999C375.467 639.836 375.87 639.674 377.063 639.568C379.757 637.961 382.583 636.534 385.122 634.715C394.457 628.03 401.328 619.422 405.156 607.831C405.189 607.644 405.221 607.456 405.892 607.118C406.72 603.983 407.547 600.849 408.461 596.949C408.704 593.54 408.947 590.132 409.65 586.204C409.894 584.895 410.138 583.585 410.448 581.803C410.448 581.803 410.311 581.342 410.384 580.424C409.93 577.374 409.476 574.325 409.005 570.48C408.048 568.144 407.141 565.788 406.116 563.481C405.244 561.516 404.235 559.609 403.332 556.868C403.174 556.043 403.258 555.055 402.82 554.418C394.982 543.047 386.285 532.378 373.311 526.687C367.647 524.203 361.297 523.36 354.578 521.553C353.698 521.208 352.817 520.863 351.231 520.141C341.099 520.782 330.999 520.798 321.291 524.713C303.079 532.057 291.795 545.34 285.552 564.27C285.582 565.011 285.611 565.753 285.19 566.502C284.841 566.648 284.748 566.895 284.262 567.697C284.325 569.284 284.387 570.87 283.902 572.782C283.614 573.506 283.325 574.231 283.005 575.86C284.27 585.197 285.535 594.533 286.839 604.53C287.463 605.047 288.087 605.564 288.82 606.9C290.256 609.934 291.693 612.969 293.523 616.573C295.586 619.054 297.648 621.535 299.991 624.521C300.118 624.666 300.245 624.811 300.512 625.647C305.52 629.704 310.3 634.099 315.589 637.741C324.06 643.575 333.893 645.327 344.809 646.728C345.148 646.691 345.487 646.654 346.423 646.818C351.891 646.18 357.359 645.542 363.49 644.967C363.907 644.846 364.324 644.724 365.38 644.576C365.961 644.008 366.543 643.441 367.647 642.843C367.957 642.695 368.267 642.547 369.372 642.499C371.05 641.679 372.727 640.859 375.063 639.999ZM556.028 301.074C555.909 300.634 555.79 300.194 555.66 298.82C555.073 294.789 554.485 290.759 553.96 285.902C551.81 280.344 549.661 274.786 547.305 268.525C538.748 254.417 527.581 243.163 512.001 237.04C507.485 235.265 502.637 234.384 497.38 232.635C492.599 232.074 487.819 231.513 482.373 230.764C481.931 230.856 481.488 230.947 480.331 230.736C477.562 231.142 474.792 231.547 471.336 231.876C470.908 232.014 470.481 232.153 469.439 232.132C466.798 233.014 464.073 233.713 461.536 234.821C458.05 236.343 454.707 238.175 450.955 239.964C450.955 239.964 450.721 240.231 449.924 240.197C438.131 245.894 429.957 255.185 423.13 266.571C423.063 267.195 422.996 267.819 422.42 268.844C421.794 270.19 421.167 271.536 419.803 273.135C418.894 278.082 417.984 283.029 416.435 288.32C416.376 290.748 416.316 293.176 416.08 296.235C416.173 296.877 416.265 297.519 415.784 298.584C415.601 299.991 415.419 301.398 415.178 303.72C415.65 306.76 416.123 309.801 416.522 313.503C416.664 313.92 416.806 314.338 417.015 315.464C417.692 316.672 418.369 317.881 419.034 319.634C419.178 319.967 419.321 320.301 419.318 321.255C420.284 323.447 421.251 325.638 422.331 328.548C422.914 330.203 423.261 331.987 424.116 333.493C432.213 347.745 443.642 358.31 458.655 365.092C468.354 369.474 478.361 371.572 489.763 371.52C492.81 371.145 495.858 370.77 499.789 370.403C504.049 369.245 508.309 368.088 513.295 366.99C514.077 366.287 514.859 365.585 516.381 364.802C517.341 364.579 518.3 364.356 519.982 364.021C530.371 357.71 539.349 349.94 545.776 338.883C545.791 338.714 545.806 338.544 546.459 338.216C548.024 335.001 549.59 331.785 551.295 327.829C553.799 321.592 555.996 315.29 555.513 307.8C555.66 305.785 555.808 303.771 556.028 301.074ZM128.265 206.083C126.729 209.292 125.193 212.502 123.474 216.434C123.164 217.494 122.797 218.541 122.554 219.618C121.138 225.888 119.752 232.165 118.292 239.326C118.661 243.11 118.705 247.025 122.595 249.296C122.595 249.296 122.479 249.307 122.766 249.817C123.111 249.946 123.457 250.074 124.212 250.857C128.624 252.976 132.295 251.317 136.703 248.837C140.745 247.396 145.305 246.703 148.74 244.383C163.032 234.734 174.907 222.458 185.224 208.721C188.906 203.82 192.053 198.492 195.17 193.193C195.983 191.81 195.767 189.807 195.936 188.671C197.663 186.977 199.879 185.809 200.466 184.057C203.308 175.582 205.712 166.951 208.398 157.595C207.879 154.183 207.36 150.771 206.771 146.704C206.164 146.102 205.557 145.501 204.772 144.253C203.218 143.5 201.664 142.746 199.67 141.669C199.494 141.7 199.318 141.731 198.417 141.416C196.11 141.703 193.611 141.531 191.526 142.352C178.84 147.351 167.907 155.206 158.539 164.765C146.882 176.66 136.359 189.616 128.94 205.366C128.925 205.536 128.911 205.705 128.265 206.083ZM584.49 823.296C583.731 823.434 582.972 823.572 581.332 823.704C576.555 823.553 571.778 823.402 566.058 823.156C561.357 823.696 556.657 824.237 551.097 824.768C546.48 825.931 541.863 827.094 536.471 828.143C535.715 828.293 534.959 828.444 533.731 828.575C533.731 828.575 533.321 828.797 532.655 828.802C531.901 829.498 531.147 830.195 529.934 830.931C529.934 830.931 529.524 831.13 528.679 831.031C525.638 832.197 522.43 833.064 519.587 834.586C510.704 839.34 501.687 844.051 498.111 855.426C498.459 857.77 498.808 860.114 499.119 863.132C499.751 863.565 500.383 863.999 501.159 864.91C501.159 864.91 501.433 865.33 501.472 866.051C505.783 870.727 510.595 874.597 517.609 876.311C520.903 877.192 524.197 878.073 527.977 879.105C528.144 879.092 528.312 879.078 528.821 879.703C535.32 880.684 541.82 881.665 548.962 882.858C549.4 882.81 549.838 882.763 551.063 882.926C565.798 881.301 580.532 879.676 596.049 877.927C599.712 876.311 603.375 874.695 607.547 872.927C607.613 872.599 607.679 872.272 608 871.531C608.16 871.247 608.353 870.988 609.452 870.722C611.452 870.451 613.451 870.18 616.177 869.861C620.078 866.865 624.294 864.193 627.803 860.794C632.452 856.293 635.613 848.53 630.078 841.39C629.276 840.382 628.474 839.373 627.113 837.917C621.661 832.501 615.19 829.466 607.113 828.487C604.37 828.008 601.627 827.529 598.241 826.651C595.33 826.062 592.42 825.473 589.018 824.718C588.851 824.755 588.685 824.792 588.371 824.215C587.643 823.947 586.916 823.68 585.723 823.308C585.723 823.308 585.266 823.419 584.49 823.296ZM640.412 565.958C642.508 569.604 644.604 573.249 646.829 577.333C646.829 577.333 647.221 577.57 647.473 577.957C647.636 578.22 647.829 578.46 648.054 579.427C653.034 586.874 659.1 593.17 666.427 598.473C676.983 606.112 688.897 609.973 701.316 610.491C711.343 610.91 721.151 608.649 730.581 604.09C744.431 597.392 753.189 586.565 760.778 573.321C761.797 570.232 762.816 567.144 764.509 563.707C764.299 561.387 764.089 559.067 764.138 556.341C764.338 556.089 764.56 555.858 765.417 555.551C765.549 554.981 765.681 554.41 766.447 553.457C766.884 549.318 767.321 545.179 767.883 540.111C766.819 533.135 765.755 526.158 764.633 518.391C762.923 514.061 761.632 509.51 759.401 505.457C756.447 500.091 752.757 495.114 749.242 489.255C742.431 481.588 734.782 474.862 725.509 470.482C721.269 468.479 716.42 467.823 711.336 466.058C708.167 465.265 704.931 463.667 701.843 463.842C694.883 464.237 687.997 465.51 680.485 466.614C679.722 466.938 678.959 467.263 677.359 467.472C658.965 473.835 646.157 485.888 639.412 505.017C638.88 506.823 638.349 508.629 637.193 510.673C635.982 516.224 634.771 521.776 633.516 528.19C631.944 539.205 634.173 549.817 637.72 561.029C638.594 562.4 639.468 563.772 640.412 565.958ZM946.049 419.594C946.505 413.76 946.961 407.927 947.579 401.487C947.559 401.067 947.539 400.646 948.167 399.932C948.239 398.558 948.311 397.183 948.444 395.254C948.382 394.885 948.321 394.516 948.515 393.213C947.218 384.064 945.922 374.914 944.596 365.095C944.414 364.45 944.232 363.806 944.24 362.369C942.785 357.629 941.33 352.889 939.835 347.469C939.601 347.085 939.367 346.701 939.022 345.531C938.128 342.806 937.234 340.081 936.359 336.83C936.238 336.699 936.117 336.568 935.664 335.744C934.14 332.644 932.615 329.545 931.086 326.048C931.086 326.048 930.858 325.718 930.908 324.92C929.845 322.58 928.783 320.241 927.746 317.143C926.519 315.403 925.293 313.663 923.811 311.243C919.79 304.356 915.879 297.363 906.887 294.432C902.874 292.602 899.51 293.82 896.73 298.009C892.285 304.706 890.689 312.144 890.795 320.742C890.921 324.759 891.048 328.775 891.064 333.603C891.253 335.49 891.441 337.378 891.071 339.801C891.122 342.215 891.173 344.629 891.138 347.685C891.247 348.104 891.356 348.523 891.398 349.803C892.253 352.348 893.107 354.893 894.033 358.258C894.454 360.455 894.875 362.651 895.204 365.776C896.434 370.215 897.663 374.653 898.941 379.819C899.178 380.761 899.416 381.703 899.595 383.498C900.482 385.654 901.369 387.809 902.398 390.79C904.845 397.252 906.8 403.95 909.887 410.107C912.608 415.534 916.592 420.356 920.312 426.099C924.006 429.096 927.467 432.491 931.503 434.899C933.205 435.915 936.958 435.774 938.317 434.549C941.986 431.243 945.082 427.186 945.334 421.061C945.341 420.615 945.349 420.168 946.049 419.594ZM433.542 47.1634C433.094 47.2587 432.646 47.354 431.318 47.3905C425.682 48.983 420.045 50.5756 413.806 52.6416C407.994 55.1577 402.183 57.6738 395.967 60.7854C390.676 63.3353 387.585 67.8261 386.074 73.2376C385.664 74.7074 387.434 76.8376 388.293 79.0285C388.293 79.0285 388.566 79.2898 388.587 80.0486C389.459 81.2144 390.086 82.8627 391.241 83.4699C400.708 88.4467 410.545 92.0714 421.582 91.1596C421.582 91.1596 421.4 91.377 421.851 91.9554C429.608 92.2571 437.364 92.5589 446.06 92.9497C450.686 92.2638 455.312 91.5779 460.809 91.1295C465.822 89.9723 470.835 88.815 476.523 87.7174C476.937 87.5699 477.35 87.4224 478.545 87.1409C481.945 85.6167 485.344 84.0926 489.115 82.5545C489.115 82.5545 489.395 82.3184 490.22 82.3963C492.62 81.4391 495.327 80.9002 497.357 79.4385C501.742 76.2795 507.355 74.2662 508.804 68.1044C508.804 68.1044 509.044 68.2549 509.734 68.0222C511.88 62.2411 510.447 57.5222 504.616 54.0638C500.313 51.5114 495.508 49.8269 490.186 47.6254C489.445 47.7022 488.704 47.779 487.729 47.6459C487.729 47.6459 487.439 47.7454 486.855 47.3648C484.677 47.2292 482.488 47.2026 480.323 46.9314C477.355 46.5596 474.405 46.0022 470.635 45.4295C468.536 45.3272 466.436 45.2249 463.97 44.4415C462.716 44.4982 461.463 44.5549 459.518 44.5374C459.076 44.6469 458.634 44.7563 457.248 44.8185C449.575 45.6398 441.902 46.4611 433.542 47.1634ZM765.008 153.941C773.024 156.28 781.034 159.196 789.437 157.216C791.555 156.716 794.78 155.05 794.923 153.598C795.172 151.08 793.413 148.312 792.465 145.25C792.465 145.25 792.239 144.914 792.259 144.166C783.526 130.408 770.403 121.378 757.184 112.82C741.111 102.414 724.006 93.8539 704.985 87.7905C702.233 87.3663 699.48 86.9421 696.192 85.9401C690.915 85.8866 685.481 85.0761 680.406 85.9965C675.518 86.8832 673.96 91.3346 676.8 95.4092C680.698 101.003 684.766 106.745 689.808 111.247C707.019 126.615 726.516 138.544 747.557 147.775C752.743 150.05 758.37 151.269 764.287 153.201C764.465 153.228 764.643 153.255 765.008 153.941ZM191.938 775.012C187.516 774.835 183.083 774.443 178.675 774.547C174.713 774.639 170.912 776.729 170.682 780.524C170.383 785.462 169.791 791.028 174.233 796.031C174.426 796.847 174.382 797.843 174.85 798.452C179.549 804.568 184.107 810.815 189.162 816.631C193.442 821.557 197.776 826.766 203.052 830.437C214.992 838.745 227.247 846.704 239.938 853.755C246.545 857.426 254.35 858.87 262.046 861.993C266.758 862.079 271.473 862.245 276.182 862.234C283.475 862.218 286.491 853.785 284.431 848.133C283.652 845.996 282.598 843.888 281.319 841.998C277.969 837.043 274.427 832.215 270.859 826.801C270.675 826.49 270.492 826.179 270.067 825.217C269.168 824.028 268.379 822.733 267.352 821.668C251.764 805.509 234.148 792.019 213.947 782.323C207.44 779.2 200.114 777.857 192.804 775.552C192.804 775.552 192.426 775.611 191.938 775.012Z" fill="#235624" fill-opacity="0.42"/>
</svg>
