<svg width="1383" height="1290" viewBox="0 0 1383 1290" fill="none" xmlns="http://www.w3.org/2000/svg">
<path d="M1301.41 365.586C1304.93 372.686 1308.24 379.882 1312.02 386.861C1316.2 394.581 1320.87 402.08 1325.18 409.742C1325.65 410.566 1325.17 411.838 1325.45 413.867C1327.44 418.069 1329.11 421.307 1330.78 424.546C1330.91 425.03 1331.03 425.514 1331.29 426.894C1333.67 433.75 1335.78 439.756 1338.2 445.655C1340.08 450.226 1342.36 454.664 1344.46 459.161C1346.3 465.208 1348.15 471.255 1350.08 478.35C1350.42 480.402 1350.67 481.405 1350.9 482.72C1350.89 483.031 1351.15 483.617 1351.15 484.135C1352.65 488.193 1354.16 491.734 1355.62 495.782C1355.82 497.287 1356.09 498.283 1356.37 499.819C1356.75 501.751 1357.13 503.143 1357.46 504.955C1358.28 506.411 1359.15 507.448 1360.02 508.484C1360.3 509.38 1360.58 510.276 1361.01 512.151C1362.43 519.373 1363.7 525.615 1364.9 532.258C1366.11 535.694 1367.4 538.729 1368.63 542.327C1369.74 549.887 1371.01 556.876 1372.04 563.886C1375.12 584.925 1378.11 605.973 1380.88 627.396C1380.53 630.958 1380.45 634.141 1380.28 637.91C1380.88 644.711 1381.58 650.926 1382.09 657.616C1382.05 665.34 1382.21 672.59 1382.36 679.84C1382.36 679.84 1382.26 680.392 1382 680.944C1381.37 682.793 1381.01 684.09 1380.58 685.734C1380.61 686.303 1380.71 686.526 1380.77 687.056C1380.73 687.365 1380.92 687.971 1380.86 688.479C1381.02 689.991 1381.25 690.996 1381.48 692.001C1381.36 698.202 1381.24 704.403 1380.88 711.532C1379.91 718.608 1379.03 724.736 1378.53 730.909C1378.14 735.806 1378.23 740.758 1378.11 745.686C1378.04 746.169 1377.97 746.653 1377.51 747.749C1376.79 752.003 1376.45 755.645 1376.12 759.286C1375.06 765.327 1374.12 771.394 1372.92 777.402C1370.78 788.102 1368.48 798.765 1365.85 810.158C1364.56 814.113 1363.67 817.352 1362.78 820.591C1360.55 828.98 1358.41 837.396 1356.05 845.747C1355.04 849.351 1353.56 852.82 1352.06 857.171C1348.75 867.003 1345.69 876.016 1342.63 885.029C1334.26 903.834 1326.64 923.008 1317.3 941.333C1308.94 957.725 1299.4 973.623 1289.11 988.94C1276.15 1008.25 1261.91 1026.75 1248.21 1045.58C1247.34 1046.76 1246.29 1047.82 1244.94 1049.68C1243.4 1051.65 1242.24 1052.89 1241.07 1054.12C1225.65 1070.37 1210.86 1087.22 1194.64 1102.71C1176.74 1119.8 1158.3 1136.53 1138.66 1151.76C1120.6 1165.77 1100.97 1178.06 1081.39 1190.22C1064.52 1200.7 1047.03 1210.38 1029.29 1219.54C1018.51 1225.11 1006.67 1228.93 995.408 1233.73C991.479 1235.41 987.848 1237.67 983.543 1239.72C981.59 1240.04 980.175 1240.29 978.241 1240.5C970.806 1243.76 964.691 1248.89 956.006 1248.27C955.575 1248.24 955.102 1249.61 954.648 1250.32C953.289 1250.51 951.929 1250.69 949.584 1250.9C947.982 1251.06 947.365 1251.21 946.426 1251.35C946.103 1251.34 945.562 1251.65 945.051 1251.77C937.889 1254.28 931.278 1256.76 924.577 1259.03C916.342 1261.82 908.031 1264.43 899.753 1267.11C899.237 1267.15 898.722 1267.19 897.419 1267.28C893.71 1267.77 890.789 1268.2 887.868 1268.64C887.868 1268.64 887.218 1268.67 886.473 1268.78C884.57 1269.73 883.413 1270.56 882.255 1271.39C881.738 1271.44 881.221 1271.49 879.885 1271.58C872.899 1273.07 866.732 1274.51 860.564 1275.96C858.355 1276.21 856.147 1276.45 852.78 1276.81C847.884 1277.34 844.146 1277.78 840.408 1278.21C817.206 1281.08 794.076 1284.43 770.775 1286.66C756.884 1287.99 742.725 1287.57 727.495 1288.01C722.559 1288.48 718.814 1288.86 715.069 1289.25C713.265 1289.27 711.461 1289.29 708.716 1289.05C700.908 1288.83 694.041 1288.89 687.174 1288.94C686.676 1288.85 686.178 1288.76 684.909 1288.36C678.567 1287.98 672.998 1287.91 667.428 1287.83C666.944 1287.76 666.46 1287.68 665.269 1287.31C659.979 1286.86 655.398 1286.7 650.816 1286.55C650.816 1286.55 650.796 1286.5 650.482 1286.13C642.315 1284.75 634.462 1283.72 626.141 1282.6C622.937 1281.92 620.202 1281.33 617.153 1280.64C616.84 1280.55 616.214 1280.69 615.73 1280.6C614.624 1280.64 614.001 1280.78 613.379 1280.91C607.852 1280.29 602.307 1279.82 596.802 1279.01C590.446 1278.08 584.123 1276.84 576.912 1275.44C567.184 1273.44 558.329 1271.75 549.474 1270.07C549.474 1270.07 549.109 1270.35 549.033 1269.78C537.473 1266.2 525.989 1263.18 514.505 1260.15C512.914 1259.82 511.323 1259.48 508.951 1258.75C501.049 1256.06 493.864 1253.93 486.823 1251.4C471.631 1245.93 456.489 1240.32 441.374 1234.65C431.407 1230.9 421.199 1227.58 411.669 1222.94C392.735 1213.71 374.023 1203.99 355.548 1193.9C342.017 1186.51 328.716 1178.62 315.841 1170.19C299.356 1159.4 283.402 1147.85 267.22 1136.62C255.709 1127.36 243.695 1118.61 232.804 1108.72C216.572 1093.99 200.801 1078.76 185.46 1063.19C172.973 1050.52 161.162 1037.22 149.51 1023.84C141.066 1014.14 133.373 1003.87 125.07 992.951C117.288 981.01 109.783 969.969 102.277 958.928C97.2187 950.859 92.16 942.789 86.6988 933.793C84.2711 930.092 82.2458 927.316 80.2205 924.541C73.9878 912.072 67.4712 899.709 61.7075 887.063C60.1227 883.586 53.2358 882.806 55.6745 876.425C53.816 872.318 52.3859 869.139 50.8599 865.531C50.5467 864.555 50.3294 864.006 50.1684 862.932C48.996 860.056 47.7673 857.705 46.4414 854.824C45.8741 852.182 45.4039 850.07 44.9204 847.434C43.5177 843.556 42.2433 840.158 40.6966 836.865C39.7354 834.82 38.3617 832.934 37.1732 830.977C35.2659 824.498 33.3586 818.019 31.3538 810.523C31.0768 808.912 30.8975 808.316 30.7241 807.41C30.7301 807.098 30.4777 806.511 30.5216 806.154C30.4454 805.579 30.3254 805.361 30.1136 804.652C28.6748 801.054 27.3278 797.947 26.0259 794.334C25.7883 792.84 25.5055 791.853 25.2536 790.323C24.9014 788.377 24.5184 786.973 24.1686 785.157C23.3406 783.772 22.4794 782.8 21.6181 781.827C21.3387 780.881 21.0594 779.935 20.6149 777.991C19.1703 770.752 17.8907 764.51 16.694 757.889C15.5621 755.077 14.3472 752.644 13.1324 750.211C13.1324 750.211 13.0807 750.281 13.2142 749.672C9.98887 727.211 6.61605 705.36 3.27878 683.506C2.14962 676.111 1.11037 668.708 0.0300293 661.309C0.0300293 661.309 0.0651125 661.228 0.484382 660.968C0.750012 648.675 0.596382 636.641 0.442744 624.608C0.500664 624.107 0.55859 623.606 0.640571 622.151C0.779079 615.713 0.893549 610.229 1.06342 604.395C1.01932 603.824 0.919804 603.602 0.85761 603.072C0.894917 602.764 0.706191 602.157 0.769472 601.652C0.607623 600.141 0.382485 599.137 0.15735 598.133C0.262679 591.925 0.368008 585.718 0.704479 578.563C1.1891 573.784 1.3391 569.937 1.71534 566.121C2.87568 554.352 4.12237 542.594 5.33553 530.831C5.63646 528.545 5.77472 526.22 6.2702 523.981C7.52421 518.314 9.24157 512.746 10.2132 507.028C11.4652 499.66 12.082 492.168 13.1902 484.768C13.4054 483.331 14.62 482.073 15.7716 480.002C17.0556 476.024 17.9415 472.775 18.8274 469.527C21.4605 460.773 24.0937 452.018 26.9512 442.377C31.1124 429.359 35.0493 417.228 38.9861 405.098C47.3307 386.334 54.9072 367.189 64.2489 348.92C72.5932 332.601 83.2153 317.428 92.2415 301.43C105.267 278.342 122.176 257.964 139.335 236.812C147.535 227.462 154.578 218.08 162.981 209.974C180.751 192.83 198.511 175.573 217.614 159.814C238.285 142.762 259.8 126.468 282.22 111.519C301.052 98.9618 321.477 88.4284 341.646 77.7256C356.152 70.0282 371.419 63.5662 386.297 56.4654C390.211 54.5978 393.941 52.4045 397.755 50.3607C403.558 48.5427 409.394 46.8048 415.155 44.8831C420.461 43.1131 425.686 41.1456 431.985 39.2361C433.641 39.0587 434.259 38.9104 435.198 38.7721C435.52 38.7822 436.06 38.4722 436.572 38.3574C444.198 35.7392 451.282 33.1643 458.434 30.7515C466.241 28.1176 474.111 25.6339 481.953 23.0847C481.953 23.0847 482.47 23.0933 483.279 22.9989C487.748 22.3613 491.409 21.8181 495.52 21.2463C497.144 20.4208 498.317 19.6239 499.491 18.827C499.982 18.7616 500.473 18.6962 501.762 18.5818C509.16 17.0234 515.759 15.514 522.358 14.0045C524.147 13.8141 525.936 13.6237 528.887 13.336C538.83 11.5962 547.611 9.9537 556.392 8.31119C583.264 5.97028 610.136 3.62937 638.036 1.49008C649.14 1.35828 659.215 1.02484 669.29 0.691406C670.652 0.707426 672.014 0.723454 674.149 0.946476C675.909 1.45982 676.897 1.76616 678.485 2.26914C684.216 2.03211 689.346 1.59845 694.476 1.16479C694.994 1.23369 695.512 1.30258 696.684 1.65799C698.795 2.25948 700.252 2.57447 702.325 3.03906C706.655 2.86198 710.37 2.53528 714.084 2.20859C714.084 2.20859 714.565 2.44001 715.194 2.73619C718.089 3.44135 720.345 3.96333 722.622 4.24086C736.915 5.9832 751.213 7.67109 765.835 9.42278C766.161 9.46855 766.792 9.33206 767.273 9.42552C768.373 9.38479 768.993 9.25061 769.612 9.11641C770.57 9.13183 771.528 9.14726 773.293 9.52554C778.849 10.794 783.599 11.6997 788.349 12.6053C793.504 13.1959 798.659 13.7865 804.694 14.6959C808.237 15.5147 810.943 15.8399 813.555 16.5419C836.611 22.7374 859.677 28.8946 882.686 35.2686C913.453 43.7915 943.088 55.4375 971.981 68.9441C986.755 75.8506 1001.47 82.9584 1015.75 90.7886C1033.59 100.568 1051.23 110.759 1068.42 121.57C1083.1 130.803 1097.03 141.163 1111.3 151.025C1111.83 151.525 1112.36 152.024 1113.43 153.028C1117.6 156.074 1121.24 158.615 1124.88 161.156C1137.08 171.415 1149.58 181.371 1161.39 192.021C1172.71 202.226 1183.53 212.956 1194.16 223.818C1203.44 233.295 1212.41 243.073 1221.03 253.09C1230.77 264.421 1240.55 275.806 1249.29 287.816C1262.84 306.432 1275.57 325.565 1288.52 344.559C1290.85 347.981 1292.54 351.786 1294.89 356.353C1297.31 360.056 1299.36 362.821 1301.41 365.586ZM1242.91 942.591C1243.38 941 1243.84 939.409 1244.48 937.195C1244.48 937.195 1244.46 936.54 1245.35 936.213C1246.36 932.762 1248.4 929.282 1248.12 925.869C1247.78 921.588 1246.8 915.82 1243.77 913.532C1240.56 911.105 1234.45 911.367 1230.23 916.189C1228.83 916.814 1227.44 917.438 1225.39 918.805C1223.04 920.214 1220.55 921.45 1218.37 923.06C1198.61 937.642 1183 955.84 1167.87 975.471C1167.46 976.448 1167.15 977.479 1166.63 978.394C1159.76 990.424 1152.86 1002.44 1145.11 1014.7C1142.39 1020.76 1139.67 1026.81 1136.85 1033.83C1136.98 1034.81 1137.1 1035.78 1136.52 1037.44C1136.46 1043.29 1136.39 1049.15 1136.3 1057.13C1143.87 1054.94 1149.62 1054.23 1154.29 1051.76C1170.99 1042.95 1184.14 1030.24 1196.09 1016.26C1213.52 995.882 1229.7 974.776 1240.47 949.248C1240.59 948.687 1240.7 948.126 1241.21 947.744C1241.21 947.744 1241.48 947.436 1242.43 947.13C1242.4 945.862 1242.37 944.595 1242.91 942.591ZM62.8886 587.221C63.0241 588.095 63.1597 588.969 63.1835 590.854C63.3877 591.856 63.5919 592.858 63.6558 594.835C63.3235 598.089 62.9912 601.342 62.551 605.644C63.0007 608.835 63.4503 612.027 63.6638 616.213C63.8976 618.24 64.1314 620.266 63.671 623.058C63.8646 626.247 64.0581 629.435 64.1355 633.73C64.5601 635.929 64.9847 638.128 65.197 641.493C66.5387 645.703 67.8805 649.913 69.1892 654.806C69.3789 655.227 69.5685 655.648 69.4805 656.993C70.4853 661.508 71.49 666.023 72.8484 671.502C73.8801 673.91 74.7709 676.38 75.973 678.715C78.3831 683.397 80.9634 688.006 83.6437 693.676C87.8802 704.428 95.9601 712.619 106.204 717.593C110.618 719.736 119.759 718.9 122.968 715.831C136.215 703.162 142.061 686.655 144.01 668.009C144.339 666.673 144.667 665.337 145.071 662.918C144.796 660.744 144.52 658.57 144.902 655.828C145.288 654.522 145.675 653.216 146.069 650.703C145.727 642.266 145.384 633.829 145.127 624.157C144.07 617.523 143.014 610.889 141.929 603.119C139.781 595.262 137.634 587.404 135.534 578.638C134.65 577.911 133.766 577.184 132.596 575.381C130.772 570.339 128.948 565.296 127.1 559.258C125.886 557.69 124.772 556.043 123.442 554.569C117.717 548.224 112.237 541.638 106.047 535.729C102.419 532.267 87.9319 532.071 84.773 535.649C79.7563 541.331 75.886 547.944 70.6601 554.374C68.2879 565.155 65.9156 575.936 63.6072 586.835C63.6072 586.835 63.7305 586.898 62.8886 587.221ZM517.921 839.761C518.475 839.552 519.028 839.343 520.671 839.217C524.361 837.134 528.235 835.288 531.708 832.924C544.476 824.236 553.816 812.995 558.913 797.798C558.955 797.552 558.997 797.306 559.917 796.868C561.009 792.756 562.101 788.645 563.3 783.527C563.582 779.049 563.863 774.571 564.771 769.415C565.088 767.696 565.404 765.977 565.803 763.638C565.803 763.638 565.606 763.03 565.693 761.824C565.02 757.81 564.346 753.796 563.637 748.736C562.28 745.656 560.993 742.548 559.544 739.504C558.31 736.912 556.89 734.394 555.602 730.781C555.37 729.695 555.471 728.396 554.856 727.554C543.871 712.52 531.712 698.401 513.734 690.779C505.885 687.451 497.115 686.274 487.823 683.826C486.603 683.363 485.383 682.9 483.185 681.934C469.225 682.667 455.298 682.579 441.973 687.62C416.974 697.078 401.623 714.417 393.311 739.236C393.363 740.211 393.415 741.186 392.846 742.166C392.368 742.354 392.243 742.679 391.586 743.728C391.697 745.814 391.808 747.9 391.168 750.409C390.782 751.358 390.396 752.307 389.979 754.445C391.87 766.733 393.76 779.021 395.714 792.177C396.583 792.864 397.452 793.551 398.483 795.314C400.511 799.319 402.539 803.324 405.119 808.081C408.002 811.366 410.884 814.65 414.162 818.6C414.339 818.793 414.516 818.985 414.897 820.086C421.867 825.474 428.526 831.304 435.876 836.15C447.649 843.911 461.235 846.32 476.308 848.28C476.775 848.235 477.242 848.19 478.535 848.416C486.065 847.636 493.595 846.857 502.04 846.168C502.613 846.013 503.186 845.858 504.639 845.674C505.432 844.934 506.225 844.194 507.739 843.42C508.164 843.229 508.589 843.038 510.112 842.986C512.413 841.926 514.713 840.867 517.921 839.761ZM762.156 396.157C761.985 395.577 761.813 394.997 761.614 393.189C760.74 387.884 759.866 382.579 759.067 376.189C756.016 368.859 752.966 361.529 749.62 353.272C737.599 334.632 722.026 319.717 700.446 311.498C694.192 309.116 687.492 307.906 680.217 305.549C673.616 304.76 667.015 303.971 659.494 302.926C658.886 303.042 658.277 303.158 656.679 302.868C652.866 303.371 649.053 303.875 644.292 304.269C643.705 304.446 643.118 304.624 641.681 304.586C638.053 305.716 634.307 306.606 630.826 308.035C626.043 309.998 621.461 312.37 616.316 314.681C616.316 314.681 615.998 315.03 614.897 314.977C598.726 322.338 587.6 334.464 578.364 349.359C578.281 350.178 578.199 350.998 577.42 352.339C576.578 354.102 575.735 355.865 573.879 357.952C572.702 364.446 571.526 370.94 569.472 377.879C569.428 381.07 569.384 384.262 569.106 388.28C569.244 389.125 569.382 389.969 568.734 391.365C568.505 393.212 568.276 395.06 567.979 398.11C568.678 402.112 569.377 406.114 569.985 410.986C570.188 411.536 570.39 412.087 570.696 413.569C571.649 415.165 572.601 416.762 573.545 419.074C573.748 419.513 573.952 419.953 573.962 421.208C575.329 424.099 576.696 426.991 578.231 430.828C579.06 433.01 579.567 435.359 580.77 437.347C592.158 456.172 608.082 470.185 628.889 479.263C642.332 485.129 656.163 487.996 671.883 488.05C676.08 487.59 680.276 487.13 685.691 486.69C691.547 485.215 697.403 483.739 704.261 482.349C705.329 481.434 706.397 480.519 708.483 479.506C709.802 479.224 711.121 478.941 713.436 478.519C727.662 470.335 739.921 460.217 748.61 445.751C748.628 445.529 748.646 445.306 749.541 444.882C751.65 440.672 753.758 436.461 756.047 431.279C759.403 423.106 762.334 414.845 761.551 404.993C761.722 402.346 761.894 399.699 762.156 396.157ZM170.83 266.646C168.762 270.849 166.694 275.053 164.385 280.203C163.975 281.593 163.485 282.965 163.167 284.378C161.313 292.606 159.499 300.843 157.598 310.241C158.165 315.22 158.287 320.366 163.688 323.394C163.688 323.394 163.528 323.408 163.931 324.082C164.409 324.255 164.888 324.427 165.942 325.464C172.058 328.298 177.094 326.156 183.133 322.944C188.685 321.093 194.961 320.231 199.661 317.22C219.217 304.689 235.401 288.678 249.412 270.732C254.413 264.327 258.669 257.357 262.884 250.425C263.983 248.617 263.654 245.98 263.869 244.489C266.225 242.281 269.262 240.768 270.044 238.472C273.83 227.362 277.01 216.041 280.567 203.769C279.798 199.279 279.029 194.788 278.154 189.435C277.307 188.637 276.461 187.84 275.359 186.191C273.205 185.184 271.05 184.176 268.284 182.739C268.042 182.778 267.799 182.817 266.553 182.392C263.375 182.744 259.926 182.491 257.065 183.549C239.65 189.983 224.698 200.191 211.93 212.657C196.042 228.168 181.734 245.086 171.749 265.712C171.732 265.934 171.715 266.157 170.83 266.646ZM809.563 1083C808.519 1083.17 807.474 1083.35 805.215 1083.5C798.626 1083.25 792.036 1083 784.144 1082.62C777.672 1083.27 771.199 1083.93 763.54 1084.57C757.192 1086.05 750.843 1087.53 743.425 1088.85C742.385 1089.04 741.345 1089.23 739.654 1089.39C739.654 1089.39 739.092 1089.68 738.174 1089.68C737.145 1090.58 736.116 1091.49 734.455 1092.44C734.455 1092.44 733.893 1092.7 732.726 1092.56C728.551 1094.06 724.142 1095.17 720.244 1097.14C708.071 1103.29 695.711 1109.39 690.957 1124.3C691.474 1127.39 691.991 1130.47 692.468 1134.44C693.346 1135.02 694.224 1135.6 695.309 1136.8C695.309 1136.8 695.692 1137.36 695.758 1138.31C701.775 1144.5 708.471 1149.64 718.169 1151.97C722.725 1153.16 727.282 1154.36 732.51 1155.76C732.74 1155.74 732.97 1155.72 733.683 1156.55C742.66 1157.91 751.637 1159.27 761.504 1160.92C762.107 1160.86 762.711 1160.8 764.402 1161.03C784.694 1159.05 804.987 1157.07 826.355 1154.94C831.381 1152.86 836.407 1150.77 842.132 1148.49C842.217 1148.06 842.303 1147.64 842.734 1146.66C842.95 1146.29 843.213 1145.95 844.724 1145.62C847.477 1145.28 850.23 1144.95 853.983 1144.56C859.316 1140.66 865.087 1137.19 869.874 1132.76C876.214 1126.9 880.451 1116.73 872.707 1107.28C871.585 1105.94 870.463 1104.61 868.564 1102.68C860.962 1095.5 851.992 1091.44 840.838 1090.07C837.049 1089.41 833.259 1088.75 828.576 1087.56C824.554 1086.75 820.531 1085.95 815.828 1084.92C815.599 1084.96 815.37 1085.01 814.928 1084.25C813.921 1083.89 812.914 1083.53 811.264 1083.03C811.264 1083.03 810.634 1083.17 809.563 1083ZM882.653 745.297C885.6 750.113 888.547 754.928 891.678 760.32C891.678 760.32 892.223 760.637 892.576 761.148C892.805 761.495 893.075 761.812 893.4 763.086C900.383 772.93 908.846 781.274 919.032 788.324C933.707 798.48 950.196 803.685 967.328 804.501C981.162 805.16 994.649 802.295 1007.58 796.403C1026.57 787.748 1038.48 773.608 1048.74 756.28C1050.1 752.23 1051.45 748.181 1053.73 743.681C1053.41 740.629 1053.08 737.576 1053.11 733.994C1053.38 733.664 1053.68 733.363 1054.86 732.969C1055.03 732.221 1055.2 731.472 1056.25 730.228C1056.78 724.791 1057.32 719.355 1058.02 712.698C1056.44 703.515 1054.87 694.331 1053.2 684.108C1050.77 678.398 1048.92 672.401 1045.78 667.048C1041.62 659.961 1036.46 653.379 1031.52 645.638C1022.01 635.485 1011.35 626.561 998.5 620.702C992.622 618.023 985.926 617.108 978.888 614.732C974.506 613.655 970.018 611.52 965.763 611.717C956.173 612.161 946.697 613.76 936.356 615.129C935.309 615.547 934.262 615.966 932.059 616.223C906.795 624.389 889.322 640.096 880.321 665.17C879.616 667.539 878.911 669.908 877.349 672.582C875.766 679.867 874.183 687.153 872.553 695.571C870.558 710.035 873.797 724.01 878.863 738.788C880.09 740.601 881.317 742.413 882.653 745.297ZM1301.81 556.19C1302.34 548.526 1302.88 540.862 1303.63 532.403C1303.6 531.85 1303.57 531.297 1304.42 530.365C1304.5 528.559 1304.58 526.753 1304.73 524.218C1304.64 523.732 1304.55 523.246 1304.79 521.535C1302.86 509.493 1300.93 497.451 1298.95 484.527C1298.69 483.678 1298.43 482.829 1298.42 480.94C1296.34 474.693 1294.26 468.445 1292.11 461.304C1291.78 460.797 1291.45 460.29 1290.96 458.749C1289.68 455.156 1288.41 451.564 1287.15 447.28C1286.98 447.107 1286.81 446.933 1286.18 445.845C1284.03 441.754 1281.88 437.662 1279.71 433.05C1279.71 433.05 1279.39 432.613 1279.45 431.565C1277.95 428.477 1276.45 425.389 1274.97 421.306C1273.25 419.005 1271.53 416.705 1269.45 413.507C1263.8 404.41 1258.3 395.173 1245.85 391.224C1240.29 388.773 1235.67 390.339 1231.9 395.816C1225.88 404.572 1223.79 414.332 1224.07 425.638C1224.31 430.919 1224.55 436.2 1224.64 442.547C1224.93 445.031 1225.22 447.514 1224.75 450.696C1224.86 453.87 1224.97 457.044 1224.97 461.062C1225.12 461.613 1225.28 462.165 1225.36 463.849C1226.58 467.204 1227.79 470.559 1229.12 474.992C1229.74 477.884 1230.35 480.777 1230.86 484.889C1232.62 490.737 1234.39 496.586 1236.23 503.39C1236.57 504.631 1236.91 505.872 1237.19 508.234C1238.44 511.078 1239.7 513.921 1241.17 517.85C1244.64 526.373 1247.44 535.2 1251.79 543.326C1255.63 550.491 1261.2 556.873 1266.42 564.464C1271.56 568.443 1276.39 572.945 1281.99 576.154C1284.35 577.507 1289.52 577.362 1291.38 575.767C1296.39 571.461 1300.59 566.161 1300.84 558.112C1300.85 557.524 1300.85 556.937 1301.81 556.19ZM589.292 61.0297C588.676 61.1502 588.06 61.2707 586.229 61.3042C578.482 63.3368 570.735 65.3694 562.164 68.0179C554.19 71.2627 546.215 74.5076 537.692 78.5309C530.438 81.8259 526.245 87.6961 524.246 94.794C523.703 96.7219 526.177 99.5415 527.396 102.431C527.396 102.431 527.777 102.777 527.818 103.775C529.038 105.317 529.928 107.491 531.531 108.302C544.663 114.947 558.284 119.819 573.489 118.739C573.489 118.739 573.24 119.023 573.872 119.788C584.572 120.269 595.272 120.75 607.268 121.358C613.637 120.506 620.005 119.654 627.578 119.125C634.472 117.657 641.366 116.19 649.192 114.809C649.76 114.619 650.328 114.43 651.972 114.073C656.635 112.106 661.299 110.139 666.474 108.158C666.474 108.158 666.857 107.851 667.996 107.962C671.29 106.73 675.015 106.05 677.79 104.151C683.787 100.045 691.496 97.4593 693.398 89.3744C693.398 89.3744 693.731 89.5748 694.679 89.2764C697.548 81.6996 695.499 75.4804 687.404 70.8708C681.43 67.4687 674.778 65.2021 667.406 62.2503C666.385 62.3433 665.364 62.4363 664.019 62.2508C664.019 62.2508 663.619 62.3784 662.808 61.8716C659.802 61.6698 656.784 61.6112 653.794 61.2312C649.696 60.7103 645.62 59.9456 640.413 59.1519C637.516 58.9947 634.62 58.8374 631.206 57.7808C629.479 57.8418 627.752 57.9029 625.07 57.8588C624.461 57.9978 623.853 58.1369 621.943 58.2036C611.376 59.2003 600.808 60.197 589.292 61.0297ZM1048.02 204.992C1059.11 208.154 1070.2 212.075 1081.75 209.562C1084.67 208.928 1089.09 206.772 1089.26 204.865C1089.57 201.558 1087.1 197.9 1085.74 193.864C1085.74 193.864 1085.43 193.42 1085.44 192.437C1073.19 174.255 1054.95 162.242 1036.59 150.848C1014.26 136.994 990.542 125.556 964.219 117.378C960.417 116.791 956.615 116.204 952.065 114.851C944.788 114.723 937.282 113.599 930.299 114.754C923.573 115.867 921.494 121.702 925.474 127.089C930.936 134.485 936.635 142.078 943.658 148.051C967.631 168.44 994.701 184.334 1023.86 196.697C1031.05 199.744 1038.82 201.407 1047.01 204.011C1047.26 204.049 1047.5 204.086 1048.02 204.992ZM267.52 1015.27C261.42 1014.99 255.301 1014.43 249.224 1014.52C243.763 1014.6 238.554 1017.3 238.296 1022.29C237.96 1028.78 237.232 1036.09 243.435 1042.71C243.714 1043.79 243.668 1045.1 244.323 1045.9C250.899 1053.99 257.281 1062.26 264.342 1069.96C270.321 1076.48 276.378 1083.37 283.711 1088.26C300.305 1099.31 317.327 1109.9 334.937 1119.31C344.105 1124.21 354.89 1126.19 365.551 1130.38C372.05 1130.54 378.554 1130.81 385.047 1130.85C395.103 1130.91 399.129 1119.85 396.2 1112.4C395.093 1109.58 393.606 1106.8 391.814 1104.3C387.117 1097.75 382.157 1091.37 377.152 1084.21C376.895 1083.8 376.637 1083.39 376.036 1082.12C374.777 1080.55 373.67 1078.84 372.237 1077.42C350.49 1056.01 325.989 1038.09 297.982 1025.12C288.961 1020.95 278.837 1019.1 268.722 1015.99C268.722 1015.99 268.202 1016.06 267.52 1015.27Z" fill="#235624" fill-opacity="0.42"/>
</svg>
