<svg width="251" height="427" viewBox="0 0 251 427" fill="none" xmlns="http://www.w3.org/2000/svg">
<path d="M92.1379 0.764141C124.268 0.704158 156.078 -0.789513 187.715 1.08519C214.774 2.68863 233.156 19.2858 244.097 43.9425C248.246 53.2948 249.412 63.2386 249.511 73.3348C249.871 109.9 250.134 146.466 250.599 183.032C250.851 202.799 243.802 219.591 230.948 234.157C217.955 248.88 201.986 259.831 185.12 269.496C170.265 278.009 160.924 290.062 158.695 307.334C158.151 311.551 157.142 311.725 153.134 310.299C148.368 308.605 143.438 307.36 138.54 306.071C135.54 305.281 132.44 304.883 129.432 304.119C122.889 302.458 117.768 299.837 115.668 292.181C112.88 282.016 104.119 276.478 95.8348 270.949C82.2129 261.857 68.059 253.526 56.2734 241.888C38.5404 224.376 29.6648 203.373 29.6016 178.46C29.5098 142.319 28.8659 106.175 28.7752 70.0342C28.7168 46.7576 37.7967 27.5724 56.1215 13.228C66.4721 5.12564 78.4889 1.05227 92.1379 0.764141ZM73.0235 244.432C78.6973 248.395 84.2415 252.562 90.0722 256.276C101.529 263.573 113.177 270.534 121.355 281.901C122.254 283.15 124.835 283.687 126.64 283.71C135.382 283.818 144.138 283.836 152.862 283.413C154.881 283.315 157.048 281.653 158.715 280.212C165.044 274.743 170.818 268.563 177.499 263.584C189.182 254.877 201.842 247.443 213.259 238.422C231.384 224.1 241.734 205.193 241.564 181.575C241.291 143.611 240.802 105.642 239.88 67.6844C239.539 53.6348 234.295 40.9299 224.871 30.2373C211.624 15.207 194.564 9.1842 175.014 9.25061C149.061 9.33877 123.104 9.25138 97.1567 9.59786C91.0243 9.67974 84.6284 10.3113 78.856 12.1978C53.9415 20.3403 37.7645 43.2837 37.9798 69.6508C38.2945 108.183 38.5364 146.719 39.4375 185.243C39.6244 193.23 41.5968 201.53 44.4325 209.062C49.9081 223.605 60.8601 234.233 73.0235 244.432Z" fill="#3D90EF"/>
<path d="M124.297 399.148C132.682 401.134 140.769 403.074 148.825 405.14C158.222 407.551 161.537 412.853 159.93 422.412C159.396 425.584 157.914 426.989 154.529 426.829C144.536 426.356 134.534 425.983 124.533 425.854C120.62 425.804 118.356 424.201 118.681 420.43C119.229 414.06 120.234 407.725 121.304 401.421C121.454 400.534 123.056 399.905 124.297 399.148Z" fill="#3D90EF"/>
<path d="M145.737 379.654C157.425 382.987 159.939 386.864 159.247 400.038C159.04 403.985 158.132 404.293 154.325 403.208C146.478 400.974 138.527 399.113 130.615 397.113C122.031 394.942 116.577 384.912 119.572 376.879C120.574 374.191 121.763 373.423 124.937 374.437C131.627 376.573 138.564 377.918 145.737 379.654Z" fill="#3D90EF"/>
<path d="M156.204 362.236C158.995 366.451 160.025 370.767 158.925 375.374C158.275 378.094 157.092 379.494 153.507 378.367C145.595 375.881 137.516 373.819 129.388 372.194C121.549 370.628 117.541 359.404 118.993 354.068C119.628 351.734 120.618 349.703 124.065 350.671C131.644 352.799 139.421 354.233 146.93 356.567C150.21 357.587 153.029 360.121 156.204 362.236Z" fill="#3D90EF"/>
<path d="M126.697 329.199C134.689 331.154 142.419 332.778 149.975 335.007C156.839 337.032 160.943 347.186 157.767 353.67C157.351 354.519 155.541 355.386 154.626 355.168C146.143 353.147 137.71 350.904 129.271 348.696C122.62 346.955 118.199 341.051 118.479 334.353C118.751 327.838 120.522 326.664 126.697 329.199Z" fill="#3D90EF"/>
<path d="M151.467 313.571C157.189 316.545 160.184 325.555 157.38 331.102C156.961 331.93 155.341 332.867 154.542 332.666C145.694 330.444 136.855 328.158 128.102 325.582C121.286 323.576 116.356 314.388 118.12 307.561C118.557 305.866 119.015 304.441 121.545 305.167C129.917 307.57 138.362 309.71 146.77 311.988C148.26 312.392 149.703 312.972 151.467 313.571Z" fill="#3D90EF"/>
<path d="M72.8073 244.221C60.8601 234.233 49.9081 223.605 44.4325 209.062C41.5968 201.53 39.6244 193.23 39.4375 185.243C38.5364 146.719 38.2945 108.183 37.9798 69.6508C37.7645 43.2837 53.9415 20.3403 78.856 12.1978C84.6284 10.3113 91.0243 9.67974 97.1567 9.59786C123.104 9.25138 149.061 9.33877 175.014 9.25061C194.564 9.1842 211.624 15.207 224.871 30.2373C234.295 40.9299 239.539 53.6348 239.88 67.6844C240.802 105.642 241.291 143.611 241.564 181.575C241.734 205.193 231.384 224.1 213.259 238.422C201.842 247.443 189.182 254.877 177.499 263.584C170.818 268.563 165.044 274.743 158.715 280.212C157.048 281.653 154.881 283.315 152.862 283.413C144.138 283.836 135.382 283.818 126.64 283.71C124.835 283.687 122.254 283.15 121.355 281.901C113.177 270.534 101.529 263.573 90.0722 256.276C84.2415 252.562 78.6973 248.395 72.8073 244.221ZM183.223 253.043C192.656 246.245 202.529 239.973 211.428 232.536C227.887 218.78 236.908 201.034 236.643 179.126C236.218 143.99 235.747 108.854 235.145 73.7202C234.918 60.5123 230.901 48.4151 222.604 37.98C210.692 22.9989 194.75 16.1445 176.003 15.9885C149.913 15.7714 123.819 15.8093 97.7327 16.048C67.7453 16.3225 42.7966 41.4952 42.9103 71.6844C43.0516 109.216 43.6482 146.75 44.1834 184.282C44.3612 196.757 48.3778 208.079 55.686 218.259C65.6802 232.181 78.713 242.656 93.1721 251.524C103.792 258.037 114.363 264.57 121.853 274.985C122.727 276.2 124.952 277.004 126.564 277.039C135.023 277.223 143.492 277.248 151.943 276.963C153.765 276.902 156.157 275.812 157.213 274.393C164.005 265.262 173.077 259.009 183.223 253.043Z" fill="white"/>
<path d="M182.969 253.218C173.078 259.008 164.005 265.262 157.213 274.393C156.157 275.812 153.765 276.902 151.943 276.963C143.492 277.248 135.023 277.223 126.564 277.039C124.952 277.004 122.727 276.2 121.853 274.985C114.363 264.57 103.792 258.037 93.1721 251.524C78.713 242.656 65.6802 232.181 55.686 218.259C48.3778 208.079 44.3612 196.757 44.1834 184.282C43.6482 146.75 43.0516 109.216 42.9103 71.6844C42.7966 41.4952 67.7453 16.3225 97.7327 16.048C123.819 15.8093 149.913 15.7714 176.003 15.9885C194.75 16.1445 210.692 22.9989 222.604 37.98C230.901 48.4151 234.918 60.5123 235.145 73.7202C235.747 108.854 236.218 143.99 236.643 179.126C236.908 201.034 227.887 218.78 211.428 232.536C202.529 239.973 192.656 246.245 182.969 253.218Z" fill="#3D90EF"/>
<path d="M57.9112 42.4462C58.3407 42.6713 58.7644 42.9091 59.2013 43.1182C59.6846 43.3495 60.1813 43.5518 60.6683 43.7754C60.7207 43.7994 60.7476 43.8811 60.8373 43.9726C61.0874 44.1093 61.2864 44.2094 61.4853 44.3096C61.5093 44.3293 61.5332 44.349 61.5976 44.4086C61.9664 44.6639 62.2905 44.8867 62.6248 45.0924C62.8839 45.2517 63.1558 45.3896 63.4221 45.537C63.7357 45.7717 64.0494 46.0065 64.4072 46.2904C64.5006 46.3808 64.5498 46.4221 64.6106 46.4793C64.6221 46.4952 64.656 46.515 64.6755 46.5412C64.8981 46.6888 65.1013 46.8101 65.3212 46.9591C65.388 47.0268 65.438 47.0669 65.5089 47.1338C65.5999 47.2163 65.6702 47.272 65.754 47.3508C65.8464 47.3934 65.9253 47.4129 66.0041 47.4324C66.051 47.4668 66.0978 47.5013 66.1885 47.5796C66.5276 47.8893 66.823 48.1551 67.1299 48.4441C67.3156 48.5714 67.4896 48.6755 67.6824 48.81C68.0201 49.1485 68.3437 49.4519 68.6571 49.7655C69.5977 50.7068 70.5344 51.652 71.475 52.6246C71.595 52.8163 71.7127 52.979 71.8481 53.1749C72.1343 53.4939 72.4026 53.7799 72.6803 54.0968C72.9727 54.486 73.2557 54.8442 73.5388 55.2025C73.5388 55.2025 73.5551 55.2341 73.5642 55.2716C73.6062 55.3879 73.6392 55.4666 73.6823 55.5652C73.7054 55.5926 73.7183 55.6001 73.7412 55.6245C73.7512 55.6415 73.7829 55.6648 73.7994 55.6926C73.8645 55.7623 73.9132 55.8041 73.9619 55.846C74.1925 56.1619 74.4231 56.4778 74.6779 56.8495C74.9036 57.2408 75.0968 57.5817 75.3094 57.9102C75.4781 58.1707 75.6707 58.416 75.8526 58.6681C75.8679 58.6949 75.8832 58.7218 75.9043 58.7939C76.0336 59.0345 76.157 59.2299 76.2804 59.4253C76.4625 59.7681 76.651 60.1079 76.8253 60.4545C77.1357 61.0717 77.4375 61.6931 77.7523 62.3635C77.8445 62.6101 77.9275 62.8061 78.0104 63.0021C78.2289 63.5066 78.4524 64.0091 78.6636 64.5166C78.7547 64.7356 78.8201 64.9648 78.9174 65.2396C79.1422 65.8568 79.3467 66.4238 79.5513 66.9907C79.8882 68.2477 80.2731 69.4954 80.5479 70.7645C80.7938 71.8997 80.9668 73.0548 81.0844 74.2081C81.2326 75.6618 81.2923 77.1227 81.3887 78.5805C81.3948 78.6724 81.3877 78.7648 81.3973 78.9085C81.4023 79.0653 81.3971 79.1706 81.3911 79.2759C81.3117 80.6681 81.2837 82.0669 81.139 83.4508C80.9793 84.9775 80.7814 86.5063 80.4721 88.0051C80.1878 89.3833 79.767 90.734 79.3438 92.0759C78.9791 93.2324 78.5558 94.3718 78.1014 95.4946C77.8252 96.1773 77.435 96.8113 77.1079 97.4732C76.9938 97.7041 76.9155 97.9533 76.7988 98.2173C76.7224 98.3061 76.6681 98.3717 76.5883 98.4542C76.3761 98.8961 76.2946 99.3821 75.8778 99.6754C75.8571 99.6899 75.8876 99.7761 75.8943 99.829C75.8398 99.8891 75.7854 99.9493 75.687 100.047C75.6209 100.115 75.5986 100.146 75.5614 100.188C75.5464 100.2 75.5338 100.235 75.5151 100.26C75.2864 100.654 75.0817 101.026 74.8647 101.39C74.598 101.838 74.321 102.279 74.0484 102.723C74.0266 102.744 74.0048 102.765 73.9494 102.819C73.8001 102.982 73.6843 103.113 73.5685 103.244C73.5685 103.244 73.5404 103.27 73.511 103.303C73.4608 103.422 73.44 103.507 73.4193 103.591C73.3977 103.613 73.3761 103.635 73.3193 103.69C73.0598 104.025 72.8355 104.328 72.6112 104.631C72.5207 104.726 72.4302 104.821 72.2913 104.965C72.09 105.175 71.9373 105.336 71.7845 105.497C70.8437 106.508 69.9239 107.54 68.954 108.523C68.3759 109.109 67.719 109.617 67.0466 110.208C66.8408 110.416 66.686 110.575 66.5311 110.734C66.4503 110.803 66.3695 110.871 66.2358 110.961C65.8741 111.242 65.5654 111.502 65.2567 111.761C65.2307 111.775 65.2047 111.789 65.1321 111.817C64.8306 112.034 64.5756 112.239 64.3206 112.443C64.2957 112.457 64.2709 112.471 64.2028 112.497C63.9463 112.672 63.733 112.836 63.5198 112.999C63.5198 112.999 63.5169 112.997 63.4888 112.991C63.0663 113.226 62.6718 113.468 62.2526 113.723C62.0815 113.808 61.9352 113.881 61.7711 113.96C61.7533 113.967 61.7302 113.997 61.705 114.011C61.6566 114.055 61.6335 114.085 61.6103 114.115C61.3365 114.29 61.0677 114.473 60.7877 114.638C60.4644 114.829 60.1313 115.003 59.7513 115.202C59.2349 115.465 58.7699 115.711 58.3048 115.958C58.3048 115.958 58.299 115.985 58.2741 115.96C57.6143 116.212 56.9794 116.489 56.3445 116.766C56.2596 116.809 56.1747 116.851 56.0397 116.903C55.5794 117.063 55.1732 117.225 54.758 117.361C53.8623 117.654 52.9633 117.938 52.063 118.217C51.4693 118.402 50.8809 118.616 50.2726 118.739C49.0641 118.983 47.8473 119.194 46.6268 119.378C45.7329 119.512 44.8304 119.613 43.9267 119.67C42.7697 119.744 41.6078 119.76 40.4479 119.801C39.5743 119.766 38.6972 119.775 37.828 119.686C36.5325 119.553 35.2388 119.377 33.9515 119.168C32.9038 118.998 31.8628 118.772 30.8261 118.535C30.0748 118.364 29.3353 118.135 28.5439 117.897C27.7371 117.588 26.977 117.314 26.217 117.04C25.6808 116.824 25.1446 116.608 24.5549 116.36C24.3041 116.265 24.1068 116.201 23.9094 116.138C23.1526 115.744 22.387 115.367 21.6447 114.947C21.4406 114.832 21.0992 115.05 20.9666 114.638C20.7262 114.502 20.5404 114.395 20.334 114.271C20.2826 114.234 20.2519 114.214 20.2037 114.166C20.0412 114.066 19.8961 113.994 19.7264 113.899C19.6001 113.787 19.4984 113.699 19.3762 113.584C19.1651 113.442 18.978 113.319 18.7827 113.211C18.6613 113.145 18.5273 113.101 18.399 113.047C18.066 112.793 17.733 112.539 17.3569 112.238C17.2831 112.167 17.2523 112.144 17.2099 112.105C17.1983 112.089 17.1646 112.069 17.1529 112.049C17.1276 112.023 17.1139 112.017 17.0773 111.989C16.8752 111.862 16.6959 111.756 16.4995 111.624C16.4318 111.558 16.3815 111.519 16.3118 111.451C16.2218 111.367 16.151 111.31 16.066 111.232C15.9759 111.194 15.8998 111.177 15.8238 111.16C15.7752 111.123 15.7265 111.086 15.6324 111.005C15.2914 110.696 14.9959 110.43 14.6897 110.142C14.5314 110.043 14.3838 109.966 14.2362 109.89C14.2362 109.89 14.2365 109.895 14.2193 109.86C13.2183 108.852 12.2338 107.881 11.2508 106.908C10.9181 106.579 10.5893 106.246 10.2587 105.915C10.2587 105.915 10.2572 105.909 10.2663 105.881C9.81034 105.254 9.3453 104.655 8.88025 104.056C8.86381 104.029 8.84737 104.002 8.79569 103.926C8.55685 103.597 8.35327 103.318 8.13889 103.018C8.11515 102.991 8.1022 102.984 8.07921 102.96C8.06915 102.943 8.03753 102.919 8.02114 102.891C7.95632 102.822 7.90789 102.78 7.85947 102.738C7.62794 102.422 7.39641 102.106 7.13928 101.734C6.97925 101.476 6.83962 101.278 6.71139 101.072C6.31587 100.438 5.9247 99.8005 5.53184 99.1646C5.45844 99.0385 5.37617 98.9166 5.31337 98.7856C5.15441 98.4542 5.02018 98.1104 4.84649 97.787C4.62267 97.3702 4.3654 96.971 4.13388 96.558C4.08892 96.4778 4.09599 96.3692 4.0693 96.2222C3.97597 95.9745 3.89241 95.7783 3.80884 95.582C3.59478 95.0441 3.38072 94.5061 3.14303 93.9152C2.83583 93.106 2.55226 92.3498 2.26869 91.5935C1.93212 90.3395 1.54628 89.0951 1.27369 87.8287C1.0302 86.6975 0.933423 85.5387 0.732976 84.3981C0.443713 82.7521 0.433398 81.0971 0.404907 79.3939C0.420176 78.6181 0.381845 77.8838 0.453612 77.1628C0.605404 75.638 0.752428 74.108 1.01726 72.6029C1.30382 70.9744 1.65745 69.3524 2.10327 67.7641C2.47775 66.43 3.00133 65.138 3.5069 63.847C3.8705 62.9186 4.31563 62.0237 4.71882 61.1113C4.82486 60.8713 4.91022 60.6218 5.00507 60.3767C5.19857 60.0686 5.3966 59.7633 5.58423 59.4515C5.75704 59.1644 5.91866 58.8704 6.13111 58.5392C6.19931 58.4684 6.22161 58.4379 6.25888 58.3959C6.27384 58.3844 6.2865 58.3486 6.30528 58.3237C6.55081 57.9074 6.77349 57.5134 7.00538 57.125C7.25853 56.7011 7.52021 56.2824 7.77817 55.8614C7.77817 55.8614 7.80189 55.8425 7.8349 55.8076C8.01295 55.6086 8.158 55.4445 8.32232 55.2622C8.36439 55.1601 8.38718 55.0763 8.40996 54.9924C8.42971 54.9708 8.44945 54.9491 8.50346 54.8952C8.77899 54.5406 9.02026 54.2183 9.26153 53.8959C9.33526 53.8195 9.40898 53.7431 9.53164 53.6184C9.91551 53.1596 10.2505 52.7491 10.5854 52.3386C11.7127 51.2171 12.8401 50.0956 14.0216 48.9458C14.5192 48.5244 14.9626 48.1313 15.406 47.7381C15.4682 47.688 15.5305 47.638 15.6356 47.5694C15.7348 47.5294 15.7912 47.5079 15.8822 47.4738C16.1326 47.2478 16.3483 47.0344 16.5641 46.821C16.5901 46.8051 16.6162 46.7892 16.6828 46.7633C16.8012 46.7146 16.8792 46.676 16.9907 46.6218C17.18 46.4512 17.3357 46.296 17.4914 46.1408C17.4914 46.1408 17.522 46.1345 17.5618 46.1259C17.7196 46.0531 17.8416 45.995 17.9553 45.9239C18.6686 45.4774 19.3801 45.028 20.1087 44.5697C20.1252 44.5599 20.1485 44.5294 20.1739 44.5162C20.2221 44.473 20.2451 44.4431 20.268 44.4132C20.3119 44.3782 20.3559 44.3432 20.4502 44.2963C20.75 44.1524 20.9995 44.0204 21.249 43.8885C21.5048 43.7255 21.7607 43.5626 22.0685 43.3828C22.26 43.2916 22.3949 43.2068 22.5399 43.1444C23.8194 42.5942 25.0979 42.0417 26.3821 41.5021C28.0993 40.7807 29.8841 40.2584 31.7062 39.8572C32.6379 39.6521 33.5748 39.4591 34.5193 39.3188C35.6989 39.1437 36.8853 38.9964 38.0751 38.8971C39.0912 38.8122 40.1163 38.8119 41.1374 38.7742C41.1805 38.7795 41.2235 38.7848 41.3101 38.7953C41.615 38.7922 41.8765 38.7839 42.1379 38.7756C43.0806 38.835 44.0254 38.868 44.9655 38.9615C45.8664 39.0511 46.7649 39.1855 47.6596 39.3338C48.4403 39.4632 49.2185 39.6191 49.9899 39.8002C50.8625 40.005 51.7383 40.2116 52.5912 40.4882C53.9132 40.9168 55.2182 41.4017 56.5273 41.8718C56.7632 41.9565 56.9843 42.0847 57.2646 42.2261C57.5151 42.3217 57.7132 42.3839 57.9112 42.4462ZM77.2287 73.6066C77.189 73.5094 77.1493 73.4123 77.0941 73.2771C77.0941 73.2771 77.0682 73.245 77.0963 73.1951C77.0107 72.9841 76.9704 72.7333 76.828 72.5722C76.6493 72.3701 76.3853 72.1172 76.1613 72.1153C75.9237 72.1133 75.6568 72.355 75.6496 72.7545C75.61 72.8381 75.5705 72.9218 75.5301 73.0667C75.4774 73.2252 75.4116 73.3804 75.3741 73.5428C75.0347 75.0133 75.0208 76.5103 75.0834 78.0611C75.102 78.1255 75.1271 78.189 75.1383 78.2545C75.2853 79.1152 75.4304 79.9762 75.5463 80.8818C75.6539 81.2874 75.7614 81.693 75.9009 82.1509C75.9435 82.195 75.9861 82.2392 76.0232 82.344C76.243 82.6405 76.4629 82.9371 76.7626 83.3414C77.0222 82.9486 77.2551 82.6979 77.3727 82.3997C77.7935 81.3331 77.9046 80.204 77.9136 79.0551C77.9266 77.3809 77.8558 75.7163 77.3717 74.032C77.3554 73.9996 77.3391 73.9673 77.3476 73.9291C77.3476 73.9291 77.3482 73.9035 77.3796 73.8525C77.3299 73.7901 77.2801 73.7277 77.2287 73.6066ZM10.2837 99.8461C10.3232 99.8849 10.3626 99.9238 10.4354 100.018C10.4828 100.06 10.5302 100.103 10.6084 100.2C10.7172 100.376 10.826 100.551 10.9698 100.784C11.1117 100.927 11.2535 101.071 11.4225 101.273C11.5103 101.366 11.598 101.459 11.6834 101.616C11.8136 101.769 11.9437 101.922 12.1107 102.135C12.2136 102.23 12.3166 102.324 12.4543 102.485C12.6753 102.646 12.8963 102.808 13.1418 103.005C13.1664 103.019 13.191 103.033 13.2382 103.104C13.4556 103.293 13.673 103.482 13.943 103.706C14.0814 103.789 14.2158 103.879 14.3591 103.952C14.6464 104.097 14.9386 104.232 15.2758 104.416C15.8769 104.798 16.5545 104.908 17.2076 104.775C17.489 104.717 17.8709 104.334 17.8994 104.06C18.0167 102.929 17.6529 101.881 17.0314 100.872C16.9954 100.793 16.9594 100.714 16.8856 100.577C16.7904 100.478 16.6951 100.379 16.608 100.227C16.5758 100.147 16.5436 100.067 16.4658 99.9263C16.1291 99.5155 15.7924 99.1046 15.4125 98.6285C15.1122 98.3349 14.8118 98.0412 14.4669 97.6916C14.0706 97.3772 13.6743 97.0629 13.2455 96.7011C13.1778 96.6977 13.1101 96.6942 12.9885 96.6473C12.714 96.4623 12.4395 96.2772 12.1259 96.043C12.0113 96.0096 11.8982 95.9685 11.7819 95.9442C11.2812 95.8395 10.7824 95.7135 10.2772 95.648C9.98124 95.6097 9.31797 96.1411 9.31118 96.4388C9.30039 96.9115 9.37695 97.3882 9.38513 97.9063C9.68816 98.5363 9.99118 99.1663 10.3016 99.7999C10.3016 99.7999 10.3096 99.7984 10.2837 99.8461ZM40.4956 95.5281C40.5127 95.4969 40.5298 95.4656 40.5994 95.398C40.6871 95.1555 40.7922 94.9181 40.8594 94.6697C41.1067 93.7564 41.1015 92.843 40.7537 91.8894C40.7463 91.8755 40.7388 91.8615 40.7638 91.8052C40.6567 91.5579 40.5496 91.3106 40.4091 91.0089C40.2514 90.7735 40.0936 90.5381 39.9385 90.2452C39.8873 90.1471 39.8362 90.0489 39.7652 89.9166C39.7652 89.9166 39.7332 89.8934 39.6912 89.8296C39.5079 89.6532 39.3246 89.4768 39.0999 89.2492C38.9212 89.1452 38.7446 89.0372 38.5632 88.9385C38.4086 88.8544 38.2485 88.781 38.0526 88.6477C38.0008 88.6019 37.9559 88.5328 37.8961 88.5135C36.8265 88.169 35.7386 87.9142 34.6346 88.2031C34.1526 88.3293 33.7108 88.5978 33.197 88.822C33.1241 88.8443 33.0513 88.8666 32.915 88.9002C32.311 89.4586 31.6772 89.9745 31.2659 90.7254C30.4943 92.1343 30.4595 93.5785 31.028 95.1354C31.0675 95.1824 31.107 95.2295 31.1185 95.2999C31.104 95.3272 31.1107 95.3482 31.1209 95.4254C31.2054 95.526 31.2898 95.6266 31.3563 95.7765C31.375 95.8386 31.3936 95.9007 31.4562 96.0236C32.0095 96.57 32.5629 97.1165 33.1522 97.7041C33.2176 97.7061 33.2831 97.7082 33.3969 97.7582C33.6412 97.8836 33.8855 98.0089 34.1834 98.1514C34.4389 98.2086 34.6944 98.2658 34.9931 98.3418C35.0085 98.3448 35.0238 98.3479 35.083 98.3889C35.6036 98.3991 36.127 98.4431 36.6442 98.4118C37.4725 98.3617 38.1793 97.9752 38.9362 97.5105C38.9556 97.4907 38.9751 97.471 39.0421 97.4341C39.3533 97.1136 39.6645 96.7931 40.0206 96.443C40.0406 96.4139 40.0606 96.3847 40.1194 96.3211C40.1272 96.2544 40.1349 96.1876 40.174 96.0922C40.1859 96.0667 40.1979 96.0412 40.2649 95.9817C40.3287 95.8426 40.3925 95.7034 40.4956 95.5281ZM34.6644 64.1275C34.6345 64.1048 34.6047 64.082 34.5268 63.9987C34.2853 63.765 34.0438 63.5312 33.7643 63.2402C33.3472 62.9861 32.9301 62.7319 32.4643 62.4423C31.2106 61.9554 29.9378 61.7882 28.6481 62.1817C28.2743 62.2957 27.925 62.4852 27.5059 62.6387C27.1771 62.8457 26.8482 63.0527 26.468 63.2812C26.4449 63.3097 26.4218 63.3383 26.3384 63.3834C26.1849 63.5512 26.0314 63.7189 25.831 63.9165C25.8111 63.9474 25.7913 63.9782 25.7248 64.03C25.6036 64.2223 25.4679 64.4069 25.3647 64.6087C25.2229 64.886 25.1058 65.1763 24.9609 65.4846C24.9609 65.4846 24.9598 65.514 24.908 65.5524C24.4562 66.5262 24.4141 67.5508 24.563 68.6438C24.5905 68.688 24.6179 68.7323 24.6338 68.8287C24.6628 68.9487 24.6917 69.0687 24.6871 69.2429C24.8811 69.6129 25.075 69.983 25.2462 70.4081C25.3657 70.5701 25.4852 70.732 25.6256 70.9442C25.664 70.9814 25.7024 71.0187 25.7262 71.1129C25.7862 71.2143 25.8461 71.3156 25.9488 71.4799C26.1328 71.6547 26.3168 71.8296 26.5298 72.0515C26.5599 72.0716 26.59 72.0917 26.6603 72.1546C26.7642 72.1992 26.8681 72.2438 26.9988 72.3247C27.0247 72.3391 27.0507 72.3536 27.0989 72.4162C27.2709 72.5104 27.4428 72.6045 27.6584 72.7398C27.779 72.8184 27.8913 72.9175 28.0215 72.9724C29.2536 73.4922 30.5079 73.601 31.7954 73.2795C32.6272 73.0719 33.3624 72.6991 34.0761 72.1145C34.2486 71.9346 34.421 71.7548 34.6494 71.5304C34.8583 71.2375 35.0672 70.9446 35.3248 70.6186C35.3383 70.5328 35.3518 70.447 35.4077 70.3182C35.4566 70.2547 35.5056 70.1912 35.5943 70.0836C35.9267 69.1411 36.0965 68.175 35.9391 67.124C35.9314 67.1121 35.9238 67.1003 35.9482 67.0456C35.8833 66.7554 35.8185 66.4652 35.7248 66.1194C35.5656 65.5836 35.3838 65.0593 34.9733 64.5938C34.8803 64.4545 34.7873 64.3152 34.6644 64.1275ZM2.96636 79.7154C3.03274 80.0038 3.09913 80.2921 3.19067 80.637C3.22504 80.7221 3.25509 80.8093 3.29447 80.8922C3.52375 81.3746 3.75522 81.856 4.02694 82.399C4.24216 82.6278 4.44358 82.8817 4.80331 82.832C4.80331 82.832 4.7966 82.8386 4.84049 82.8574C4.86873 82.8482 4.89697 82.839 4.98414 82.8517C5.3689 82.7655 5.51532 82.4698 5.66643 82.0829C5.84727 81.7825 6.09857 81.5048 6.19668 81.1779C6.60491 79.8181 6.72801 78.4095 6.6791 76.9848C6.66165 76.4764 6.58896 75.9674 6.51586 75.4618C6.49679 75.3299 6.38151 75.2099 6.33452 75.1269C6.35706 74.928 6.43698 74.7386 6.38499 74.5941C6.1334 73.8947 5.84636 73.2074 5.54026 72.4583C5.3345 72.2615 5.12873 72.0647 4.88531 71.8287C4.81663 71.8202 4.74795 71.8118 4.63533 71.7702C4.49946 71.8001 4.36359 71.83 4.18365 71.8611C4.17415 71.8721 4.16465 71.8831 4.09206 71.9084C3.96165 72.0448 3.7959 72.1609 3.70662 72.3209C3.16321 73.2947 2.87499 74.3659 2.77155 75.4688C2.64282 76.8413 2.6392 78.2254 2.97238 79.6342C2.98009 79.646 2.98781 79.6578 2.96636 79.7154ZM62.9571 96.847C62.9164 96.8947 62.8757 96.9424 62.7794 97.0346C62.4715 97.2682 62.1637 97.5019 61.7918 97.7773C61.5239 98.0522 61.256 98.3272 60.9336 98.6453C60.7025 98.9568 60.4715 99.2682 60.1859 99.6117C60.146 99.6601 60.1062 99.7085 60.0357 99.7796C60.0357 99.7796 60.0212 99.815 59.9796 99.8493C59.9676 99.9333 59.9555 100.017 59.9167 100.127C59.9167 100.127 59.9011 100.161 59.8429 100.198C59.7111 100.429 59.5535 100.649 59.4521 100.894C59.1352 101.658 58.8078 102.426 59.1604 103.352C59.3013 103.488 59.4421 103.623 59.6149 103.805C59.6766 103.801 59.7383 103.797 59.8333 103.817C59.8333 103.817 59.8718 103.831 59.9109 103.876C60.419 103.962 60.9178 103.97 61.4455 103.725C61.6972 103.615 61.9489 103.504 62.2388 103.379C62.2486 103.37 62.2584 103.36 62.3221 103.375C62.7803 103.108 63.2384 102.841 63.7477 102.555C63.7728 102.53 63.7979 102.504 63.8832 102.452C64.7265 101.595 65.5698 100.738 66.456 99.8324C66.6041 99.54 66.7523 99.2475 66.9246 98.9192C66.9122 98.8944 66.8997 98.8696 66.8823 98.8048C66.8779 98.778 66.8769 98.7512 66.9324 98.6778C67.0443 98.5581 67.1562 98.4385 67.3112 98.2787C67.4043 97.8838 67.5336 97.4941 67.5816 97.0928C67.6452 96.5613 67.4499 95.8923 66.7397 95.7072C66.6381 95.6821 66.5365 95.657 66.3771 95.6311C65.7597 95.5546 65.1991 95.6859 64.6419 96.0335C64.4452 96.142 64.2486 96.2504 63.9913 96.3656C63.7785 96.4754 63.5658 96.5852 63.3136 96.7092C63.3051 96.7201 63.2965 96.7311 63.2475 96.7093C63.1882 96.7288 63.1289 96.7484 63.0351 96.7849C63.0351 96.7849 63.012 96.8155 62.9571 96.847ZM53.41 77.1583C53.7267 77.29 54.0434 77.4217 54.3904 77.5755C54.3904 77.5755 54.4272 77.5711 54.4626 77.5836C54.4862 77.5924 54.5105 77.5983 54.5737 77.6501C55.2646 77.8835 55.9652 77.9864 56.6948 77.9599C57.7457 77.9216 58.6902 77.567 59.4968 76.9679C60.1481 76.4842 60.6496 75.8364 61.0107 75.0574C61.541 73.9132 61.5417 72.7583 61.3464 71.5049C61.2537 71.2509 61.1609 70.9969 61.0929 70.6857C60.9619 70.5446 60.831 70.4035 60.6957 70.2226C60.6955 70.1959 60.6977 70.1695 60.736 70.1058C60.7153 70.0617 60.6947 70.0176 60.6945 69.9163C60.5118 69.6232 60.3292 69.3301 60.1073 68.9698C59.6864 68.5675 59.2655 68.1653 58.8007 67.7142C58.4736 67.5181 58.1614 67.2861 57.8155 67.1346C57.3576 66.9341 56.8732 66.7965 56.355 66.5923C55.5379 66.4378 54.7159 66.3876 53.911 66.5737C53.543 66.6587 53.205 66.863 52.796 67.0066C52.5566 67.1162 52.2722 67.1766 52.087 67.3455C51.6698 67.7261 51.3017 68.1604 50.8857 68.6155C50.8543 68.6756 50.8228 68.7357 50.7329 68.8309C49.9001 70.1849 49.7071 71.6264 50.2542 73.2218C50.3124 73.3671 50.3707 73.5123 50.4018 73.705C50.6075 74.13 50.8131 74.555 51.0598 75.0386C51.5201 75.8394 52.1988 76.4202 52.9906 76.973C53.1152 77.0182 53.2397 77.0634 53.41 77.1583ZM65.185 52.0028C64.9176 51.5979 64.6502 51.1929 64.3622 50.74C64.3396 50.7135 64.317 50.687 64.3202 50.6083C64.255 50.5147 64.1898 50.4212 64.1002 50.2881C64.0776 50.2671 64.055 50.2461 64.0011 50.151C63.4553 49.6184 62.9094 49.0858 62.3278 48.5108C62.2836 48.478 62.2394 48.4451 62.167 48.3507C61.835 48.1146 61.5031 47.8786 61.134 47.6002C61.0999 47.5871 61.0657 47.5739 60.9846 47.5149C60.7902 47.3822 60.5957 47.2494 60.3757 47.0813C60.3614 47.0789 60.3472 47.0765 60.2769 47.0457C60.0238 46.9205 59.7707 46.7954 59.4972 46.6446C59.4972 46.6446 59.4661 46.6346 59.4287 46.5799C59.2432 46.4809 59.0577 46.3819 58.8353 46.2321C58.67 46.1808 58.5046 46.1295 58.2886 46.0466C57.6865 45.801 57.0858 45.5427 56.3721 45.8093C56.0271 45.8941 55.8776 46.1453 55.9155 46.5611C55.9761 47.2259 56.2532 47.7939 56.6964 48.3511C56.9081 48.6074 57.1199 48.8638 57.366 49.1788C57.4736 49.2927 57.5812 49.4066 57.681 49.584C57.8067 49.7394 57.9324 49.8948 58.0854 50.0965C58.1135 50.1183 58.1416 50.1402 58.2092 50.2219C58.392 50.3448 58.5749 50.4678 58.8038 50.6407C58.9418 50.763 59.0797 50.8853 59.259 51.073C59.5615 51.3008 59.8641 51.5285 60.2065 51.8014C60.2692 51.8509 60.332 51.9004 60.4344 52.0088C60.5995 52.1046 60.7646 52.2004 60.9805 52.343C61.4623 52.6411 61.9251 52.9798 62.4314 53.2253C62.8779 53.4417 63.3729 53.5541 63.8982 53.7403C64.2823 53.7481 64.6721 53.7939 65.0479 53.7457C65.2064 53.7254 65.435 53.5248 65.4583 53.3755C65.521 52.9721 65.5096 52.5489 65.2146 52.1353C65.1924 52.1057 65.1702 52.076 65.185 52.0028ZM14.0816 53.7568C14.0583 53.7858 14.035 53.8149 13.9534 53.885C13.6801 54.2765 13.4068 54.6679 13.1196 55.1212C12.8822 55.582 12.6447 56.0429 12.4121 56.5633C12.2091 56.9998 12.2428 57.4512 12.4225 57.8823C12.4713 57.9994 12.6906 58.0486 12.8558 58.1481C12.8558 58.1481 12.8862 58.1513 12.9261 58.1999C13.04 58.2317 13.163 58.3076 13.2664 58.2885C14.1139 58.1316 14.9159 57.8673 15.5631 57.2451C15.5631 57.2451 15.5627 57.2686 15.6204 57.2835C16.1231 56.9079 16.6257 56.5323 17.1919 56.1146C17.4478 55.8339 17.7036 55.5532 18.0263 55.2437C18.2825 54.9125 18.5387 54.5812 18.8404 54.2195C18.8589 54.1888 18.8774 54.158 18.9382 54.0787C19.0744 53.8057 19.2107 53.5327 19.3695 53.2399C19.3695 53.2399 19.3752 53.2101 19.4309 53.1732C19.5331 52.9882 19.6759 52.815 19.7292 52.6159C19.8444 52.1857 20.0949 51.7678 19.8732 51.2908C19.8732 51.2908 19.8959 51.2884 19.9275 51.238C19.7689 50.7504 19.4394 50.5146 18.8975 50.5855C18.4976 50.6379 18.1102 50.7726 17.6641 50.8998C17.6214 50.9426 17.5787 50.9854 17.5108 51.0263C17.5108 51.0263 17.4975 51.0477 17.4415 51.0525C17.2978 51.1547 17.1589 51.2645 17.0091 51.3571C16.8038 51.4841 16.5902 51.5979 16.3242 51.7526C16.1871 51.8529 16.05 51.9533 15.8553 52.0277C15.7794 52.0953 15.7036 52.1629 15.5805 52.2609C15.5582 52.2906 15.536 52.3203 15.4521 52.395C15.0116 52.8399 14.5712 53.2847 14.0816 53.7568ZM40.3273 43.8483C40.9497 43.5928 41.601 43.3753 42.0284 42.8175C42.1361 42.6768 42.2542 42.4034 42.1895 42.3011C42.0774 42.1237 41.8263 42.0322 41.6113 41.8802C41.6113 41.8802 41.5801 41.8697 41.5434 41.8197C40.2964 41.3646 39.0136 41.4427 37.7487 41.5565C36.2107 41.6948 34.7015 42.0066 33.1987 42.5794C33.0042 42.6919 32.8097 42.8044 32.5523 42.9065C32.218 43.172 31.8354 43.3959 31.5633 43.7148C31.3012 44.022 31.4292 44.3926 31.8144 44.5145C32.3432 44.6818 32.8903 44.8502 33.4356 44.8878C35.2969 45.016 37.1273 44.8029 38.9179 44.3344C39.3592 44.2189 39.7746 44.0118 40.2444 43.8366C40.257 43.8294 40.2695 43.8221 40.3273 43.8483ZM35.842 113.696C35.5552 113.91 35.2567 114.11 34.985 114.342C34.7408 114.55 34.608 114.88 34.7861 115.14C35.018 115.479 35.2633 115.873 35.7963 115.974C35.8499 116.018 35.8976 116.085 35.958 116.101C36.5636 116.262 37.167 116.438 37.7798 116.561C38.2987 116.665 38.8354 116.785 39.3533 116.756C40.5251 116.691 41.699 116.588 42.8543 116.402C43.4557 116.306 44.0194 116.002 44.6615 115.814C44.9619 115.58 45.2666 115.35 45.5619 115.109C46.0193 114.737 45.7808 114.031 45.3645 113.766C45.2071 113.666 45.0339 113.582 44.8576 113.524C44.3957 113.37 43.928 113.235 43.4291 113.062C43.4018 113.051 43.3745 113.04 43.2989 112.999C43.1821 112.967 43.0669 112.923 42.9482 112.905C41.1487 112.642 39.3572 112.658 37.5958 113.053C37.0285 113.18 36.5 113.466 35.9238 113.688C35.9238 113.688 35.903 113.711 35.842 113.696Z" fill="#F5FF6B"/>
</svg>
