<svg width="369" height="717" viewBox="0 0 369 717" fill="none" xmlns="http://www.w3.org/2000/svg">
<path d="M105.715 1.61784C159.209 1.21729 212.176 -1.58615 264.843 1.2645C309.888 3.70267 340.44 31.3829 358.577 72.6571C365.457 88.3124 367.365 104.988 367.499 121.93C367.982 183.287 368.302 244.646 368.961 306.002C369.317 339.17 357.528 367.415 336.08 391.979C314.402 416.807 287.779 435.332 259.667 451.709C234.908 466.133 219.317 486.446 215.552 515.452C214.633 522.533 212.952 522.834 206.283 520.48C198.353 517.68 190.149 515.637 181.998 513.519C177.006 512.222 171.847 511.584 166.841 510.33C155.952 507.603 147.434 503.252 143.963 490.424C139.354 473.392 124.784 464.181 111.009 454.98C88.3588 439.85 64.8203 426.003 45.2352 406.582C15.7668 377.36 1.0565 342.199 1.03054 300.393C0.992877 239.746 0.0359257 179.099 2.6429e-05 118.451C-0.0231184 79.3914 15.1553 47.1119 45.7104 22.8695C62.9692 9.17643 82.9894 2.22874 105.715 1.61784ZM73.1147 410.696C82.5485 417.292 91.766 424.233 101.462 430.411C120.512 442.549 139.885 454.122 153.464 473.121C154.956 475.209 159.252 476.086 162.257 476.106C176.812 476.207 191.389 476.155 205.916 475.364C209.278 475.181 212.89 472.371 215.671 469.937C226.226 460.701 235.858 450.276 246.997 441.859C266.476 427.139 287.579 414.545 306.615 399.301C336.837 375.098 354.13 343.273 353.922 303.642C353.589 239.937 352.895 176.226 351.481 112.538C350.958 88.9642 342.268 67.6932 326.612 49.8379C304.604 24.7391 276.22 14.7915 243.67 15.0854C200.46 15.4756 157.244 15.5712 114.043 16.3948C103.832 16.5895 93.1817 17.7089 83.5651 20.9286C42.0582 34.825 15.0517 73.4773 15.3262 117.722C15.7274 182.379 16.0075 247.044 17.3851 311.683C17.6707 325.085 20.9283 338.995 25.6254 351.607C34.6956 375.961 52.896 393.693 73.1147 410.696Z" fill="white"/>
<path d="M157.988 669.845C171.942 673.101 185.4 676.28 198.806 679.672C214.445 683.63 219.947 692.497 217.24 708.552C216.341 713.881 213.869 716.252 208.234 716.015C191.598 715.314 174.946 714.782 158.297 714.659C151.782 714.611 148.018 711.943 148.57 705.612C149.503 694.917 151.196 684.277 152.997 673.687C153.25 672.198 155.919 671.127 157.988 669.845Z" fill="white"/>
<path d="M193.746 636.933C213.196 642.416 217.369 648.899 216.175 671.013C215.817 677.638 214.304 678.163 207.969 676.379C194.912 672.702 181.68 669.654 168.514 666.371C154.229 662.808 145.18 646.028 150.192 632.519C151.869 628 153.851 626.701 159.133 628.372C170.264 631.894 181.809 634.086 193.746 636.933Z" fill="white"/>
<path d="M211.23 607.606C215.862 614.653 217.563 621.886 215.717 629.627C214.627 634.198 212.652 636.557 206.687 634.701C193.523 630.603 180.078 627.217 166.551 624.567C153.504 622.012 146.867 603.215 149.301 594.246C150.366 590.323 152.021 586.906 157.757 588.498C170.368 591.999 183.313 594.332 195.807 598.179C201.264 599.859 205.949 604.086 211.23 607.606Z" fill="white"/>
<path d="M162.207 552.441C175.508 555.648 188.372 558.301 200.945 561.971C212.366 565.306 219.166 582.306 213.858 593.216C213.163 594.645 210.148 596.118 208.624 595.76C194.507 592.447 180.474 588.762 166.43 585.135C155.363 582.276 148.02 572.41 148.508 561.167C148.982 550.231 151.935 548.245 162.207 552.441Z" fill="white"/>
<path d="M203.498 525.985C213.015 530.922 217.972 546.013 213.285 555.349C212.585 556.742 209.885 558.329 208.555 558C193.831 554.355 179.122 550.6 164.557 546.359C153.215 543.056 145.037 527.684 147.995 516.211C148.729 513.363 149.495 510.966 153.705 512.161C167.637 516.116 181.691 519.629 195.682 523.373C198.161 524.037 200.562 524.996 203.498 525.985Z" fill="white"/>
<path d="M72.7555 410.342C52.8961 393.693 34.6956 375.961 25.6254 351.607C20.9283 338.995 17.6707 325.085 17.3851 311.683C16.0075 247.044 15.7274 182.379 15.3262 117.722C15.0517 73.4773 42.0582 34.825 83.5651 20.9286C93.1817 17.7089 103.832 16.5895 114.043 16.3948C157.244 15.5712 200.46 15.4756 243.67 15.0854C276.22 14.7915 304.604 24.7391 326.612 49.8379C342.268 67.6932 350.958 88.9642 351.481 112.538C352.895 176.226 353.589 239.937 353.922 303.642C354.13 343.273 336.837 375.098 306.615 399.301C287.579 414.545 266.476 427.139 246.997 441.859C235.858 450.276 226.226 460.701 215.671 469.937C212.89 472.371 209.278 475.181 205.916 475.364C191.389 476.155 176.812 476.207 162.257 476.106C159.252 476.086 154.956 475.209 153.464 473.121C139.885 454.122 120.512 442.549 101.462 430.411C91.766 424.233 82.5487 417.292 72.7555 410.342ZM256.561 424.117C272.289 412.621 288.747 402.003 303.585 389.44C331.032 366.202 346.108 336.339 345.737 299.577C345.142 240.62 344.47 181.663 343.578 122.71C343.243 100.548 336.594 80.2855 322.813 62.8517C303.028 37.8231 276.508 26.4697 245.295 26.3828C201.858 26.262 158.414 26.5692 114.981 27.2133C65.0535 27.9537 23.4357 70.4289 23.5287 121.088C23.6444 184.069 24.5182 247.049 25.2897 310.027C25.5462 330.958 32.1974 349.921 44.3325 366.936C60.9279 390.205 82.5931 407.662 106.638 422.408C124.298 433.238 141.878 444.103 154.316 461.511C155.766 463.541 159.468 464.87 162.151 464.913C176.234 465.143 190.335 465.105 204.406 464.548C207.44 464.428 211.426 462.578 213.188 460.186C224.527 444.8 239.651 434.222 256.561 424.117Z" fill="#174218"/>
<path d="M256.097 423.991C239.609 433.801 224.485 444.379 213.146 459.765C211.384 462.157 207.398 464.007 204.364 464.127C190.293 464.684 176.192 464.722 162.11 464.492C159.426 464.448 155.724 463.12 154.274 461.089C141.836 443.682 124.257 432.817 106.596 421.987C82.5513 407.241 60.8861 389.784 44.2907 366.515C32.1556 349.5 25.5044 330.537 25.2479 309.605C24.4764 246.628 23.6026 183.648 23.4869 120.667C23.3939 70.0078 65.0117 27.5326 114.939 26.7922C158.373 26.1481 201.816 25.8409 245.254 25.9617C276.466 26.0485 302.986 37.402 322.771 62.4306C336.552 79.8644 343.201 100.127 343.536 122.289C344.428 181.242 345.1 240.199 345.695 299.156C346.066 335.918 330.99 365.781 303.544 389.019C288.705 401.582 272.247 412.2 256.097 423.991Z" fill="white"/>
</svg>
